<mxfile host="Electron" modified="2025-03-21T14:20:06.231Z" agent="Mozilla/5.0 (X11; Linux x86_64) AppleWebKit/537.36 (KHTML, like Gecko) draw.io/24.4.13 Chrome/124.0.6367.207 Electron/30.0.6 Safari/537.36" etag="ZrICyaQ72WlIMrULaWAM" version="24.4.13" type="device">
  <diagram name="Page-1" id="4WW4_qZmwAZr7rKrXwzl">
    <mxGraphModel dx="1256" dy="816" grid="0" gridSize="10" guides="1" tooltips="1" connect="1" arrows="1" fold="1" page="1" pageScale="1" pageWidth="850" pageHeight="1100" math="0" shadow="0">
      <root>
        <mxCell id="0" />
        <mxCell id="1" parent="0" />
        <mxCell id="1a2z4wAiVwXOB5H00OA--1" value="" style="shape=image;verticalLabelPosition=bottom;labelBackgroundColor=default;verticalAlign=top;aspect=fixed;imageAspect=0;image=data:image/png,iVBORw0KGgoAAAANSUhEUgAAArEAAAIBCAIAAADRcnAPAAAACXBIWXMAAA7EAAAOxAGVKw4bAADUCElEQVR4nO29f1xV15U2fqaZJDMGiq02/UKrmNcMGN9YVDROMqVAzaut5WdNY4ChSK1AnTj8jGnSGCCmSWMBYeybCMQKY4TGxgpC7atTK9Q2GVNAqB0jfMYJmBY+TXRGRkpamzTfZ86qm+25l8vlcs49+967nj/u55xz1zlnnf1rPXvvtdf+yw8++EBjMBgMBoMR8PhLuxVgMBgMBoOhBJgTMBgMBoPB+B8wJ2AwGAwGg/E/cM4JPvjgg7/4i7+Y7JQFWIAF/FVAQZVYgAVYwAoBR3mNxwkYfoP29vZ58+YtXbrUbkUYDAbDV8GcgOEPKCsrKy8vx0FWVlZDQ4Pd6jAYDIZPgjkBw7cxODiYkpLS19dHp42Njfitrq4OCQmxVS8Gg8HwPTAnYPgwGhoaCgoKRkdH5YugBb29vS+//HJkZKRdijEYDIYv4s+cwDFykeEKC7CAagLFxcVVVVV0HBQU9PWvf/2v/uqvmpqaenp6+vr6Pv3pT9fU1KSlpSn+FQoKKKgSC7AAC1gkYMCfOYFq/pAswAIuBK5cuZKSktLZ2UmnycnJDQ0NISEhEABR2LhxY2Nj46VLlzIyMg4ePFhdXb1gwQIFv0JNAQVVYgEWYAErBJzyA547YPgYent7YfWFA0FpaWlZWZkmlW/wg6VLlxYWFuK4tbW1o6MDtAC32KMug8Fg+A6YEzB8CWJ9ARAeHg5jn5KS4ihWUFCwcOHCzMzMUR3Z2dktLS379+8PDg72qroMBoPhU2BOwPANjI2Nwcaj30+nQUFBHR0dNCngFAkJCRAAYxgaGtL0AYO4uLgTJ07Mnj3bK/oyGAyG74F9DFnABwRGRkYeeuihU6dO0WlERMTPfvazuXPnun5mVFTUm2++2d7eXlZW1qNj8eLFaWlpOAWlUPAzFRFQUCUWYAEWsEjAAPYxZAHVBQwLDsmBwP0nJOrAE2pqasAtqqqqDh061NLSAsag1GcqIqCgSizAAixghYBTfsBzBwylQYsI6BhsAKbds8H/6urq1atXJyUl4XhoaGjZsmVHjhwBVzBRVQaDwfB1MCdgKIre3l7hDRASEvL888+np6fP5IEJCQknT54Eq6A1C+AH+/bt4/UIDAaDIcCcgKEiOjs7QQhovgCEoKOjIyoqauaPjYuLI8dDim1A6xFEAAMGg8EIcDAnYCgHw4JDmO2lS5dO6RrjJmbPnk0RC+QABngF6IIpz2cwGAzfBa87YAGFBLq7uzMyMgYGBuhKaWlpcXFxUFAQCZuoQ35+/vLlyzdv3ox3jY6OxsfH412PPPLIrFmzvPCZigsoqBILsAALWCRgAK87YAFVBGpqaqjvDoSGhh49enTp0qXW6RATE3P69OmNGzdSzIPy8nIaMBA+jMomFK87YAEWYIGZCzjlBzx3wFACGRkZzc3NdBwVFQVCEBYWZvVLYf7Jn4C4SGdnJ1gITVVY/WoGg8FQEMwJGDbjypUrcXFxYv+C/Px8GOkpB7hMREFBQZyO0dHRoaEhHDQ0NDgNmcxgMBj+DeYEgYL33nvvpz/96X//93+vXr1anbD/vb29ZIw1fX2BXb5+S5cuHRwcpPUIUCY1NTU8PPzYsWORkZHeV4bBYDDsgp/4GH7oQx/S/BR/+tOfZp5Q586dW79+/fnz5zV9qv7AgQMG0+v93Ozq6qqrq6uvr6dTmOHvfOc70E2IeblEgZH88Ic//Pa3v11ZWTk2NjY0NLRmzZpnn302LS3NazooIjCZ/MjIyPDwsKbvPdHf3x8WFtbd3d3R0XH16lVcHBgYwHUcLFq0yOCqKQN3/fGPf3znnXdwDG4aERGBg0uXLlEgClzB02677TY8BA/EaXR0NErFZE8TKrkAnoOX/vrXv/7d737X09MTqsOpJCgg9MG/pBhe7TQdJjtlARbwRQED/MfH0I8xw4T6/e9/v27dupUrV6Kl+7d/+7fY2NidO3fGx8e7/wTTBWpra/Py8ugYxri6ujorK8v2EgVLVlZWtnTp0o0bN46Ojl68eDEjI+PgwYMNDQ3keKhgsTddwKk8UgN5JBaIugZRz8kAqyyfUqAIR4i9Ldrb2915qfsY0eGObgAqC4oEEWjbs4YFWIB9DN3FmTNnrly5gobbUk91bwqg++Xqg6eDvr4+dMJ+9rOfoV+OJGpqarKRSyGbCgoKRLjiqKgoWFwTww/MHCkpKRTAgJRsbW0NcMfDqqqqHTt2iP0mZMBkyqfIXOEXAqqHW8LDwxcsWADDj1ORgDDJYrkpAV1zGjAQmIwreBlQA+wZn4lCm5ycbLc6DIbl8BNOQEFwUXVNNKX2QvTj//SnP83wUYsWLbr55ptramrQEKPvO2PVPAcsK9pWGiXWrrsT2qjPZID1AlNZs2ZNRkaGpu+PgJ4iDWbYrZpXQT4WwsyXlpYiZe655x7DkhCrqfOgDhd6otbLc2F0Ku6CzjTMs0CHi1fg3ys6cAXU+fjx41RWO3Vs3rwZrNqFGgyGH8BPOAEqs7A0/gHwG7O6Sh/+8Id37tz5yCOPvPfeex/60IfQS/PCMj9HyLsZBQUFtbW12eJO6D7S0tLuu+8+Moro8mZnZ8NIwFTYrZeXUFZWBhqED0dm7dixA9knJlC8rAlqd3h4uAvSgIIkX6FTR48ZF8Njjq9ABcRpb28v0oEiWNTX17/++us0rGXOhzEY6sF/OIEig41qAr1zmLekpKTf/va3d99997e+9a2cnByvvR0dr8zMTDEx7EMu/ShXNI9AU+nNzc3j4+OBsD+CIHAwjbW1tT6RWVaApo3ADJAgfTri9C0zmBYw/BV+su5AHhJUVkkPBNBFM+sVK1euzMjIQEO/atWq3NxcMIN7773XC18BKlBSUkLzx/gccBF0vES4YlNeYalASEhIaWkpLAHUBu9El/HEiRNNTU0JCQnqKGmiAEjPQw89hFyLiIgoKioi7qi4zlYLREVFnTp1qri4uL6+fnR0dN26deBJKABKKckCLOCZgAH+tu5gug7VigvMmTPH9UdN6xXBwcF/93d/h34PmvujR4/ed999Vn+FCBGoSe6E5r7COwLUO4RVqKqqGhsbS0pKQge6ra3NEOlB8a9wR4AIATIL3xs4qy2mFEBGgwcsXrwY5XlkZCQzM/P06dOG4RPblWQBFpiWgFN+4CdzB65dkHwR5OhkipPEu+++i+YMHT5ayY3T9957D93fmT/ZBZAjBQUFNBGr6XPzfjATX1FRsWTJkuzsbE33O0tMTJT3R/ADgMOBEISHhwtCwJCBIo1f0ILR0VHwwv7+frs1YjBMhl9xAn9qxcjZG63zzB916623wjZXVlb+9re//cu//Ms777zzlltuIcNmEWAvU1JSRHTCsrKy/Px8617nTWzcuHHBggX0dfjMOD0Qsn/MLqMS0bSOnxEdcwFaAMKECjUwMAAKRSyBwfAb+AknQNNMG9jYrYjJMMWX7UMf+tCJEyf27NmD/s3vf/97pFJ9ff3cuXNn/mSngI3cunUrhbQDIejt7cVXTDmJ5UOI09e5xel7NJDTGWwDuILdes0UMG8gOkVFRf5Xj8wFshu0AGmFCgV26PcOp4yAgp/4GIqwBK5vUfwrrBMALdiyZcsbb7zx29/+9uDBg1Pe4pkO3d3dubm5IhhcWlpaaWlpeHg4CauQDmYJgOucOXPmmWee+da3vkXLFA8dOlRRUREREaGOktMSIPdJ6P/UU08popKyAijS+/fvT0pKwvHjjz9+4MABBZVkARZwU8CAAPIxBG8QA9qo1TjesWNHcHAwOrItLS1lZWWyPC03QtNPV2g9Umho6Nq1a+VuwbSUxBPQlGRmZrofbJEkzUooGLBr165p1mR3uQ46DQoK2r17t9x1VrDAzFwA9iAjI4MCGLS3t589e/aVV15ZsWKFUkq6KUBj4LW1tbNmzVJEJZUFEhMTExISkOnNzc3btm1z6jlru5IswAKuBZzyAz+ZO3AH/f39IARZWVkw6jDPNTU1N910U2VlJUWxhQGTJ+9TdOzbt+/KlSu0XR7+HRoaAksQq5PRjM6bN6+4uFjcNTIykp6e7jgdKx6i6ZFi0XsGBXFHZ3OndZ2ubJw58HVoFsVuRj4UfmDmoAAGNI+A4hEfHw/a53P7LKM6QH9kXJwe7ce6F/3xj3+8+eabrXu+N5GTk0MhNxoaGtQMx8lgeIAA4gS08QkqMJ3CosM8gxNQv39wcFDmBGAP5LcIedhykAOQhuHh4fvuu4+mk2GtwSoMm+YNDAxAmPb/la/jXbgFdATkIzk5GS0IzIZ/zNqKcC50mp+fD7pj7qIGmrynJRjII6QbXhEVFUX/UosMBcB4wM8E2UJerF27VizcwI2QNOSLKUBJQCIgi1EexsbGUlNTkdFQyYfc9KhSWOou19ra+sQTT/zqV7/6yEc+snnz5meeeQaM/Gtf+9ovfvELTeq+oOSgjnziE5/A8e9+97uSkpJ77733y1/+svwoZPHJkyf/8Ic/IMfvvPNOVKXPfe5zuP7qq68++uij7777rngg8OCDDz7yyCNWfJEoS+gDMCdg+A0CiBMY9lRFlUYjLhwRHC00temo8Jruba7pO7XgVCzTio2NNTyTNo11BJo5intz/PhxeqB/AK2zvFferl27yK6Y29dEisG0g37dc8894Adk2t96663g4GAKt0c2uK2tDcrQTJCmz/7gLjAwyFy5cgUCiYmJuMsiU008Lzc3F1wEKpEapiwb8QIoxawb3vjJT36Ch69cuRJU4Pz58zt37vz973+P2vepT30KLAppBa7w13/91zDt/9//9//91V/9Fd21d+/ePXv21NbWghbA9tNFMHvk8oc//GEIo5j9y7/8CwR27979D//wD7fffvuSJUtQJVHLwAzuvvvu5cuXWxfGG4yExg4B2oDNohcxGN6EX3ECd3reovZS3wi3EC1Aw2TY5I3GDyhqcpkOkpffYmhxiCI4+iGjU4tmF9cn26TVMxi2fvEmDLvjoH08deqURSMfFKqhqKiIpuph45ctW1ZZWUmEQEzEIPvmzZtXWFgoJ4tgYNAWPVScWrdAAC89cuTIhg0baD0CUuPcuXPu2CTwCaSnXX1NkBhYNRRR6/znkU1/+Zd/CWZAs1ef/OQnf/azn+HgazoorZAvzz//PMkTpyTfPRz/8z//81NPPUV/UQ168sknac7uD3/4Q0REBKgGOAF4Az0hNTUVGX3ixAmwBIu+iIBCBWaj6a2HXTWRwTAXfrLugABjP+UtMAzoPfT09KB5Qi8kJCSEOve0VassT9QBzc3Zs2fRNamrq8vOzkZzEx0dLWRaW1vRNoltXg8fPqzpw9Tyc3D84osvxsfHU0iArq4u+QkefGaHDuiD9vEXv/gFnublpEZjjaacVhtq+vAJ2t9FixYZvtoiHWjW4OabbyZWh/QXkps2bUIftKmpCfyAdoAUf9F0xuXLly1VEiUB3KhSx+jo6N/8zd9873vfoyjIjrcgAVEwvv3tbyMfceOuXbtM0WG6AsSJYd7ERdPfCELw3nvvnTlz5tOf/jROn376aVlm1qxZml4x5bsuXLjw+uuvP/bYY83Nzd///vfFagiqrbfccgud4mDVqlWvvPIKno+3uHjgzL/C8YoYG4BW9JeCrSILsIBrAQMCaN0BIT8/H50SdInEsoLu7m4coD9nkKdeL65DgBYmPKND7PCLzsH4+DjMYVVVlWsd0MEFsaC4fitXrqRJd3cCx1IXma7QcDRRAU1nHidPnsSTvZzU8vaGmt47h212vW2dKTrAguIKxdXB6ac+9SnYXbxdRBfGLTiGcUXHF5LvvPOOpvuFIA1FL3z9+vXisRYlFHSAhkgl8oFISkoCUxTD8hCASkgxZKXYtUvMuZilgwcVB6WdLlrxxi1btoBHrl69GpT6q1/96mc/+9mbbrpJ/EvCIHly1oBLfehDHyoqKoKxB206d+7c//7f/1u73qL98pe/RHl49913kYZHjx7FA0EIxO3igZamG07FwBiKYmJiooKtIguwAK87cAWYEHmEllKEfAZlMeo5yROEtAwB19HW19TUoAUHq0DjbthS3TC/LgPyxAmysrLwBDzcnaUHeCMYAO3QKuIEy/8CsILXrl2brcPxK6YEFPvDH/7gelIjOjo6JiYGZow8LsV1MW4/JfecOeLj4+kABA6kCp1v2nRgMnniCugsirtglrwWXobWI2zdurW9vZ28Dimhdu/efejQIUPIaiQskT/cNagDRQUU0DFiN7LY9QQN3S50oCsLdEx2CyivZnF0cJQfUGekAHr8Bw8evOOOO/bs2bNmzRpZRvTyCc3NzSABc+fO/cxnPgNOgEQjTkB4UQcdh4aG7t+/3/BG8AlrPuUGsA8Bw/8QWJxgMpCXkPCWl9tHalLpmPrEME74pSbeMAuA5sn1i5YvX04j3lMabCgDztHX10c+2E51nox/eAfur6g0BRUVFZTaNHELFuLag48m8sm1E3bUcV7JaqDYHDlyBKUFLKpRx2SSnTrkKy6ELYLVq2A+/elP//jHP7548eILL7yAXnVycvLAwMC8efOEgMwJzp49+2//9m833XQTxN58801c+cEPfvDkk08KgUWLFn3lK1/BxX/913995JFHUO8MmWtgGAwGw034Sc1Bi+Z0EaA7IJMPUy1i8pNjGl0nr3XDljDT7R/AdsoLvahT6Br0RdN6i3+jqKjIMCyGvEaOG8SQaOiUa9f9PSdjLchWGB7qIlsK8lG1+i2+gvnz5z/77LN/8zd/s2nTJlh0eRcM2Yo3NzdruuMqCMEf//hH/AVyfOHChYULF5LA5s2bUR5SUlIiIyPPnDnj+CLvcALRDvCAAcNv4Cc+hlQnYWtd3HLXXXeR04BBYP369YcOHSosLKQgbmNjYzAn6JVSNxQHSUlJixcvTkhIuO22215++eWIiAi0aOI5hgeiITNcuXr1KmwPnhAcHPzrX/8algyneNdkT6BTYa6g0vj4uOHD0Sai04zPmXJkQgZ6Zk5XS+JL5e0P0Jm7+eaboW1/f79sNUdGRpAyIzpwSqMU6Ii7+AoXV6YlsHz5ckeBNWvWoD8NuiZmEJCqmu40AMmPfvSjkz2zvb2dOuKWlkmk0rZt20TgW1oX98tf/pKcHwWQgCITyR9CcwPISgjjRgOtcVokIEx/yfv4oZzT6bFjxwz+mKYnC9Khq6vryJEjtO6ATPuf/vSnDyS/vJtuuknc9b3vfQ+c+Kc//SnJV1dXgwGgkj7yyCMkg/KJgzvvvPNzn/schMEz5KqNA3ACL7RIgtxDW/lbTHwFC7CA1QIGBJCPIXrqTp+AtrWtrY3m5uk67X1HAitWrDh37hy6m/gXzRZaN/xLc9X79u2DWZKfCXu/Y8cOgw70/IaGBihA1h2nYjxjss8kr/6oqCh0g4aGhkg9MaR87dq1DRs2THd7e1rLN2VKgm3Q6WRKFhcXk1slxQPAp4kg0FPq4JkAJbhBID09va6uDp1F5A6tKYXxyMrKSkxM1PS5FXAFx2eiHd+6deuuXbu2b99uXZmkISsKpA01oKGY8sBF/AtVyUGEJKcsD4YrIoKyyCwXSgphoYMsACKVl5cnxtisqKr33HNPZWXlZz7zma985Ssf+tCHUHhg7L/0pS/JzoC33nornYKpDA4O7t27V3iP5uTkgDkdPXoUtY+EcTsJgyv86Ec/Qk38xje+IV4KmVtuucULLZIYpkJNxF8KtooswAIB6mPopj+dC6BBNJgQAVR48kw0JCjIgSFN0cmbLKYvLYvfvXv3tFQlqw+CslFH9XWAHNBSCFu2aq2oqFiyZAltowfDBntsaTBjF7F0KBEAaAI7sWnTJuFDigxdvHix4y1QGymJZxYWFlqjr0YxDekYhcoQ6xrHRAJg+VAeYPzI89Su0IeUce7MZ3mMBx54AL38xx9//B//8R9xisLz//7f//vkJz9J/86fP/9v//ZvY2Ji6PS2226Lj49/6KGHxO24giJHBhj3fupTnwK9oL/uv/9+MAZDtf0//+f/eCeCskg0n4tmzWBMBj/hBD4BNBz33nuvO5KirTEYCZyiwwSTQ8yArJo8Kes10Fo7/HZ2dqJHjp6odTGLKE6UU0pLdA2AwYiKipJtQ1pamiPDgxkGnTp8+DClsOnh5wwBlRMSEvbv3z/ZK0D1YOq2b99Oo1B2xcKj8XlHzwxzkarjP//zP9GDh42Xs+ZDH/rQq6++Kq6AK5w4ccKQd5s3b6YrISEhfX19cmGgCSP5SkZGRnp6uqWfQyDHo/DwcN4umeE38BNO4BMeeWjx3dwIQDTQTntvtI4RQJMkxpy9D1puR+EKxsbGoAnIijdXIsiYjDQYgKRLTk6mXS6161tlmqUDnrlu3TpytkBG4y2TjTwZVLI3Wj6t5rCaExCcOnn4KMD/KI4nDxIw/Al+wgksXV2tLKgxsreFpd0HsrOzR0dHZfcCG1VyARhg6ttBz02bNpnYmjudL/AV4wee1NraCp3ZvLkP2hRRs3jvKAbDy/CTdQfUnwZzd32L4l8hTkXYAzpQU0lxnJWV9eEPf/jhhx9GFxmmZdWqVbCOa9euVUpJw5WoqKiXXnrJlFeg1KWnp/f09NCVioqKoqIiIalaZjm9QtG0tmzZcs899ziu9VdTZ9sF/uVf/kXTl5PIscxVU5IFWGBKAQP8ZN0BTcQODw+79rFU/CvEqfC4vnDhgjZVwGYVviI1NfWLX/xiQ0NDdnY2bOTnP/95Q0QjFZQ0XFm0aNHMX9HZ2Ym+Na0vCAkJ2b9/P616UOcz3RGIi4ujLf527ty5a9cuFVRSXKCjo+PYsWM4QHaLi6opyQIs4FrAKT/wk7mDpUuXOob+9QNY6g1uOmgNJzqdfX195eXlaDcNLvd+hrq6ury8PDqGTcXH0v5MvggQOPC5mpqav//7vxdrFxmTQbiA8GwLw8/gJ5yAoQjQ4wQVWLVq1cDAAPrQ4Gq0IZDdepkMcLWGhgaxmjErK4tCVk85LqcskEfIqaGhoZKSkpmv7PVvIKGoB4J8tzomNIPhZfgJJ/CO17TX4FvDAwbMnj27q6srMzMT7SZsDHqfg4ODItyhHwCFDRaUfM61G3c19GnQMhYwOXwdURyGI6qrqymCZ2hoqL0LRhgMK+BXPoZozlzfovhXiFNBcWgjHzWVdCEQFBR0+PDh5ubm3NzcsbExtKG//OUvv/Od78hhd21X0jMB9BErKyspyuTy5cubmpoiIiJkMRWU9EwgKioKtCA+Pr6xsfHy5cv4NApdoLLO3hQYHx9/6KGHxHKD7373uyEhIf7R4LBAIAsY4Cc+hgLLli1bsGCBYz+bdsbTbtxM1hHoJ4ljyNNzxMXu7u45c+a43nZW3lAAN9JmB06Fad/b/v5+wz7F8ia5FP1etaR2UyA9PX3dunXoQ1OYoJ/85CcioII6SrovgMKQmZkpTEJWVta+fftUU3KGAsidioqKkpISfOa8efMovxTX2TsCqJUbNmygnSM0Pa752rVrVVOSBViAfQyN6NPheN3NiEZOxTzeknjmexn7etwF8B4KYLB169bR0VH0QdGY+qJ7ATIiJSWFihbFIyJjabde5qOoqOjs2bOgcZRf+fn5O3bsEAthAhDI+urqahF8ArmPU8e45gyGf8BPOAE6o+rHMfQA/uHBhAZ0zpw5SUlJOM7Ozu7o6Ni9e7cPmRkRRlpztn+B/wE0DgWPPhm28ODBgw8++CAyEV8dUEF8G3TIDUtUVBQljn1KMRjWwk84Afpwv/nNb2hkr7e310XjtUAHHYPpo+cnavjw8PDbb79NYecNsw/yjAPFzKfjzZs305Q/ITo6ejJTRzMCNF+AY3oLOXiLeQ0DcBFcxz+6IwkJCW+++SZ1tWm62sVGAOoA2RQXFydGntCHrqystFcl7wAFL04PVg2LODIyUqND040iMpEqEcotirQLf1gI4F/IiM2sJwNegcor100rgOpGVY9OqTLK20zgmFx58HvixAnyGhFIS0t7/vnn1S+0DMZM4CecQNPdgMk8i+n/KedatBs74uIJk90iTokTJCcn19bWujmdI8+jy2ua3VHSP0D7I5CJbW9vp1OVu1xQMjMzU8QjQgcROW63Ut4DbT8NFBcXiyiNk83NzQTh4eG33nqrmKqfDIJYiI47CIqw0GAVsgerpnN32Hii4JSJHgMvqq6udmf3CgbD1+En6w5sESB7priSSgnAsp45c6auru6JJ564dOnSsmXLNm/ejJ43+bcroiQdVFVVPfnkk+Pj45o+yFFRUUH+nkopaZGAfApD2NXVBYMNhnT16lVQhH/7t39D3mnmQWwj6RqOk4MGduKUVXg8pTh//vxPfepTOTk5ETroou1ZwwIsYLqAAf6z7sAWAc1nFwXYKJCbmxsXF7dhwwa06fX19a+//npLSws6i+ooSZs90kXZKVK1lLRCwKl8pA5xCiuOXjj4wbRG+8XIvCPQxRfPd+c5Fy5cWLhwoRjnp+kA4uiOr5Dn5mi+wMXiIyHsOCpge9awAAvwugOGfwIdL9pnubW1lVw67N33WUCORwQlX375ZZVnN+wCUQH3J+nEFbGTpylN27Tm4DwQcP7xDIZfgzkBwx7QtsW0bdLo6GhiYuL+/fvtjR7f3Ny8ZcsWmnuOioo6evSowb+EwWAw/BvMCRh2Ap1ydMTR44QlTk1NNeym6E0QO6Fj2tDI4LPGYDAYfg/2MWQBmwXQIz937txXvvKVY8eOlZeXt7W11dbWRkdHe02HgYEBityn6VGZKyoqcnJyTP9MHxJQUCUWYAEWsEjAAPYxZB9D+wXCwsJ+9KMfFRYW1tTU9PT0rFy5cs+ePbm5uV7Qobq6uqysjOYLIiIiTp8+LfzRFEwoLwgoqBILsAALWCHglB/w3AFDFcA8L1iwgMLn5eXljYyMWDqPMDY2Rps30mlycvL+/ft9KLoig8FgmA7mBAyFUFBQAFqA36GhofLy8t7eXiIKpr/oypUrq1atohXtISEheCP4x5SjagwGg+HfYE7AUAspKSlxcXFksNGJBy2gXZRMfEVLS8vGjRtpvoDcCXnBIYPBYGjMCRgKYvbs2SdPnkxPT+/s7BwaGqLdFLOyskx5eEFBgdjjLjk5GYSDI9gzGAwGgdcdTFtgZGTEdh38XiA0NBS0oKqqqqmpqaenJzs7+9VXXy0rK5PXB073FZcuXfrc5z4nQvc//fTTjz/+uEFMtXSwRUBBlViABVjAIgEDeN3BtAWuXbtGpxQeVU0l/UOgWAf17Ovr6w8ePCjCHU73FR0dHenp6cTnQkJCcBoVFaXIZyoloKBKLMACLGCFgFN+wHMH04ZweeMxZ++gurp66dKlW7duHR0djY+Pz8rKamhomO4TaDkDgNtxirybki8zGAxGoIE5geeYbBsVhunYuHHjnDlzkpKSNH2j6t7e3lOnTrm5blDe0MjGOIkMBoOhPpgTeA7ajY3hHSQkJJw8ebKgoKBPx4oVK6bcoAgZlJKSQrvlhoSEPPfcc4Y4SAwGg8GQwT6GngukpaXZrkNACcTGxp46dSo9Pb29vX1gYGDZsmWlOpzecvjw4YcffpgcCJYvX97U1BQREaHCV6gvoKBKLMACLGCRgAHsY+i5ANkbxZX0M4Hg4OC2tjaxX1F5eTltrrh06VL5lrKyMvxFx2K+QJ2vUFlAQZVYgAVYwAoBp/yA5w48hxXx9RjuQHYv6Ovri4uLq66upgAGvb29+BcXSZIdCBgMBsN9MCeYNoQbAa87sBEJCQkgueQ/ODo6mp2dffz48YiICJADClAYFBTU1tYGumC3pgwGg+EzYE4wbaAnKg6Sk5Nt1SXQQbMGtM6wublZXA8PDz927FhkZKR9qjEYDIbvgTmB5+Ag+SqAtk1KTU0VVyhicUhIiI1aMRgMhi+C1x14LkDjBIorGQgCyIUjR448/PDDf/zjH0tLS3NychRU0ocEFFSJBViABSwSMIDXHbgrUF1d/elPf3rFihXiX5qrLiwsxEFKSooKSgasQGJiYkJCguJK+oSAgiqxAAuwgBUCTvkBzx24ixYdHR0dcqiizs7Ompqa2bNnEydgMBgMBsN3wZzAXWzcuDE7O7u6ulr4GA4ODr766quaPqVto2IMBoPBYJgC5gTuApzg2WefFVvpaDoVGB0dzcrK4kWJDAaDwfADsI/hNAS+/OUvP/HEE+KU1sE/9thjsoztSrIAC8xQQEGVWIAFWMAiAQPYx3AaAmvXrpU5ARAaGiovgldBSRZgAfYxZAEWYIEpBZzyA547mAaio6PDw8OHhobElYSEBBv1YTAYDAbDRDAnmB5SUlJqamrEaWJioo3KMBgMBoNhIpgTTA8bN26UOUFERISNyjAYDAaDYSKYE0wPcjzj8PBw5gQMddCrY8GCBXFxcXbrwmAwfBK87mDaAsuXL+/p6cHxrbfeqqySLBBoAiUlJVVVVTiYNWvWI488UlxcHBQU5Nkr1PkoFmABFrBawABedzANgeHh4S1bthAhAAYGBpqbm9PT05VSkgUCTWB0dDQuLq6vr4+ujI+Pl5eXU9jNBQsWTPcVinxUYApcvXp17969mu635EHesYAKAleuXEF9HBwcPH36tOKr0pzyA547cBfI4/Xr1wtCQMjIyDh+/HhDQ4NNSjECHSCmq1atolAZISEhZWVloAKdnZ2gCEuXLq2urs7KyrJbR4ZbgC1ZvXo1tTDIR+QdGpzg4GC79WJMDwUFBUTQV6xYsX//fp8Le8+cwC309vaC+lHLGxUVhWwGRWhsbMQpfnGMhpijGTK8jI6OjvT0dCqWsbGxVAjz8/PLdeB6dnb22bNnKysr7daUMQXQhmzcuFF0OSjvdu/evXfvXt6T3VdAIwRixG5sbCw1NbW0tBQMz1a9pgfmBFOjoaEB9ZOO0eCCv9Mx+OCGDRvQUUO3DPUWLTLogm1aMgIMkxVLTe9lLliwgGJvV1VVXb58Gf8yZ1UWyErKLBxnZWXBtLS2tuIYFAE2BnkHumCzioyp0N3d/cADD8jRawhg58hB0HdfsQ7sY+hK4OLFiw8//HB7ezudonlF1RUyyOOf/exnaI6bm5tRFJYtW7Z27drvfve7oaGhSn0FC/iZQH9/f0lJCRXL+fPnf+c730lISJDFcAzTsmbNGoihcDY2Nh4/fry2tlaE2HL9CjW/2l8FMjIykEeavrD52WefRc9S0zdcrays/MlPfkIDBsi+iooKaljU/IoAF0AObt68eXx8XNMD2ZWWloaFhW3btu3AgQOaPuoD6/D000//4z/+o/D8VecrDGAfw0kFBgcHYeMHBgY0fdkhiB5+DU+YO3duU1MT8h5Evq+v79ixY+vWrQMrBLtX5CtYwM8EYNrz8vLoGKz05Zdflv2Y5FvQKqFwooWC1RkZGUlKSgJRQJfU9SvU/Gq/FAC327BhAw01IyvRwoSEhJBAnI7h4WG0JxCAyTl69Ch5h6j2FQEucOXKlbKyMhG0Rp4p2L9/P0g5mQacPvHEE9///vdRAcVkkO1f4ZQf8NyBc8gDs1RdZ8+ePRnDQh5DgGaSgPj4+H379vFwH8N0oFgKQgDzACMBK+L6lrS0tFmzZqE0orPS2NjY29t76tQp9lyzHbAl6enpZC1iY2PRgGgObXRoaCjyi/wNxYABeJ4tCjMcgX5jSkqKcCBwbPZhGpCDyD5kInIQksuWLVPcOjAncALkX3l5OR0bZmonAxgD8r6yshLEEKeovVSZp2yyGQw3gXaE3FqBXbt2FRQUaG6MBGr6wjY0XtSbQasUGRmJTid7rtkINA7IFJp7nrKFQcZBmLqbzc3Nw8PD7NGsArq7u++//36x5AeZIoaHDUBVRfaJRSWwDrRU2IvKTgPMCW6AwXH0yJEj09rRoKioaM6cOTTAgPYX3J/7ZIyZA8USzQoRgqCgIA8WOMGE0JQW2qaRkRH1Oyt+DGREYWGhpmcl2gd3yBmNRFIZII/mhoaGySwQwwtA+m/dunVsbEy7vuTHdfcPFRA5iFuoFre2tiIT1bQOzAkmgLaSZu/otLS01INtD9HOEqlHrlOfrKmpiWsvw2PI62DR7vz4xz9esWKFZ49CyUTDFBMTg7aMhrLcGQNjmAUke2ZmJq0pCA8Pf+WVV9wfrYFRgR1Cl6OqqmpoaAhZCTsEa2ShuoxJAHJGDgSojzgmB4IpR+xAAcmZQMwjoCKfPn1atSEfXnfw5ytg31lZWRcvXsTx8uXLa2tro6OjPXsFCsrhw4fr6urKy8vBM+Lj40EvRKxZxdOBBZQSeOKJJ5555hk63rx5c2VlJUrRTF4RFRX1q1/9ilbToF1DT+UHP/jB/PnzvflRgSmABN+2bdv58+e1ybNyyldUVFSAIObm5lLDAoP01FNPKejK7q8CMBNIfHI8h5lAfy8iIkKIufOE/Pz8z3/+83gIHkUBx2Ad0tLSbPxMA3jdgRPHUdQ04m4zeQVyfcOGDchyZDzFmgVJRIusbDqwgGoCwoEALFMsUp/5K8AA2traaAS7p6fn7rvvxqkYyrL9q/1SQO5Ziolnz16RmJi4ZMkSPLC1tRWZePLkSfKAVuEz/Vjg6tWrYuRf0z18d+/eLY/8u/+KyMhImglCkYB1yMjIOHjwIKyDWHXitc90yg8Cfe5AdiAA43v55ZdN9L1CRe3q6qLRQrwCL5rJwC8jcIAmAwyAfNDAI2nnAnNfgSYJRT0lJWV0dBS/oMXktMgwF3ILg57liRMnZj5WjMKAIoEsq6ysxJNxynGNrEZ6eroIVEMLDqfscLsGsmz16tWwDqiA5F7wyiuvqGAdApoTgKOtXbuWWl5wtCNHjhiWes8cQUFBqL3U4UPex8fH+2IEbIY3Ia+DTUhIQCfeohfF6Tu1oDR2dnYWFhbivbRE3qLXBSCoOyhHIDDRpwxmKTo6OikpiZYpIvum9HRjeAB5waHr9QXTBWo3rUDBw2GGYB3c9Dm1FIHLCcDfUZ2IELjjODoTkJMw6jBel5qaSivLVXMtYagA2qqAjpOTk8EgLX0dCuHJkydBCGiZojqdFT8AupVoYeiYqrxh4n/mgFE5c+YMaEenDvQ9Dh8+bO4rAhxy2GmxpYiJz1+wYAENCra2to6NjS1btkwsM7YLAepjKLe83nEARKOwfv16vKi+vp5izeK4qKjI0s9kAR8SQIsA1lhVVaXp01gVFRW07MULOqAZWr16dXp6OjgrGj4UUeH0ZNEb/VuAsnLPnj2anpW1tbVigYDpOkRFRbW1tVXqgF35/Oc///3vf18mHyonlMoCFy9efOyxxyjsNNLzqaeecowIYooOwicd5mB8fBwE/cSJE01NTU5NkhXpYEAg+hgK1y2DA4HVOgQHB6N1uHbtGt4+MjJSUlJy6tSp559/PiwszJZ0YAF1BGQHAnkYyWs6JCYmnj17ljzXDDuAq5xuCgogK8lLQ9PjEYEcWO0AiIYFb4mLi8N7jx07tmTJEhG9QOWEUllADj8A1uUF9/Dc3Nzo6GgKgtTe3o5MRCOQnJzMPobW4sqVKzRKo+kDQeBisj32DlC8KIYBuZa88cYbCi5RZXgTIoiNdmO8dC+DPNdycnJoKKu3t1eOzc5wB3JWHjhwID093WuvjtN3UMzOzqaZaY5J5RkMy9BoixDNje71zAFOIPx7aJb55MmTZvkuuI8A4gTomt93332iK0abwdiiCfl2xeneyAMDA+w2HLBAmdyyZQuRVE0vluAE9qpUW1sLolxeXk4rZVBN0FmxVyWfAGzJtm3bQKe0655o3g8ohDZkzpw55MRAMal27drlZR18GnLM6aCgIHmNrndA4Q7FytXExMQdO3Z42b0gUDgBEhqcHU2w5vYWBpZC5D2tR+D9EQIQsCLoz1H8E+Q7rC/aI7t4qgyUQ/BUcq1CZ8XGoQtfgRxrEhQKWeliyzRLQV6HpAzsyoULF6xbt+JnkN0Jo6KiXnzxRbucbWGeli5dSsoUFhZSvFGvjSUHBCcQtEtztnWVXZCDlWrX90c4evSo96czGN6H3ADBiqDOmx6BYCZAHaHoBegzlZeXDw4OCvcChgFi30L0LHfv3m1784KME8OQ7e3tOLUivoWfAY0wbV+nmRR+YIagCrhhwwb0GcREHpiKF17t5+sOurq6kNOdnZ04XrRoEeqGHIpSBSUrKirS0tLQ7KL2og4j17/73e8a9lmwXUkWMFFgeHg4PT2dyuTcuXNFdgtJ25WkUxTFs2fPFhcXHzhwAK0SjhMTE2lqQ82E9b4AshJpQpvdoWFB84JGxkXz4jUlQ0JCzpw509zcvHnzZrQqS5Ysqa2tnSyArgopaaMAjG5lZSVN+sTGxqJBjo6Opr/sVRIV8Pjx47T2gTZZRi+COpDm6mCAP687EDsXa85CUSqiJK6sWLFCxJq9dOlSUlKSGH5UR0kWMEUAJPWBBx6gCUvk8nPPPWcIk2W7kvIp6ktdXR3MHspkj46Ojg5YF9V0tkUAdZaC0Gl6VoIQqKYkqCeYCpW3jIyMnTt3Qsnw8HCllLRXYHBwEH1xikdkmFNWQcn58+c3NTWtWbOGgphRKGt51GfmlV1zgH/OHcjrC0CZKW7rlPzIXlCsWXJ6gOZxcXFyGHNTQD7k6ECY+EyG+0CGwr7SAidqgBQvk4SEhITDhw+jQsH+dXZ2gh/wShmxvkA4gtitkXOgy0u+Dn06yGnU+67sagKZSFsUavo29+hD2q2Rc9A8An4pE2kyyLpM9ENOIAcYp6WlvrKeCmqDBlK4ZZH35s4hgReb+DSG+3C6C46vADaPfGAbGxtppYzKhtBSyM0L+txIFsXpkezOjIYFrFSFALq2Q4StI1an+OIa5BdKGnqMzc3NFCPfunCH/sYJ5MUkaWlpzz//vOI11oCIiAj6BFqiumzZsj179uTm5prycDRn3BZ4H+TwRWUyNDS0qanJtwgBgXgAOiswKrQeQYX1O14G7V1CPcuEhITdu3f7RPNC7sxoVUj5OD26UcCGV0cziG8XhACECa2iT4zYHThwAAaCNKf1CPv27TP9Lf7jYzg+Pv7kk0+SC0ZQUBD6NI6Rg21X0h0BFNOTJ0/iQ/AJY2NjeXl53d3dtNv6TF6Bh8AsPfPMM0ioWbNmWf0VLEBoa2sDu6f5gs2bN3/jG9+YP3++4mXShXxsbOzrr7++bdu29vb2mpqagwcPUohu23W2WgA5iOaFOBA1L6iYqEcep6T3BdAVPn36NEpjT09PY2Pja6+9hozLyclRSkmrBVBuS0pKaAEwPh/5iNz8wJlHoZpfUVpaCjKakZFB6xGQoTt37pR90j14hQF+4mOIrtjatWspp8XesqopOS0BNLWbNm2iUcp6HWKFjGeveOmll3CMwqQ5TIKqnA4+LYBMJJIq5gsUVHK68osWLQLRQVFEf4VCdINuNjU1zUQl9NXI3NI4FtJNKXdgeXtDsCLUHcfmxXYl3RGIjIzEt2zduhWlEa0laA153SulpEUCo6OjwslMcwgYqoiS7gisWLECVIDGks+fP5+UlCQ2Z/KgsmsO8Ie5A9lVRISi9AMgj3t7eynWrKZPgKE+ozn2bLtVJAtZpujo6CVLlqCNC8z5YO8AJJX2DtCUDD8wc1CAfdqjobm5eXh4mAKtePAoFPLExMT169eLmN/o9yiyN6M8zqypFN3EY6BbjKZAzLGCs164cEGscvJXgPqsWrWKbIRPOBC4BvmIoGRu3759bGwM5AC5iY8KDw+f+cN9mxPI6wtQ1vfv3+9/dq62tva+++6j+DbIeyKJ063AaAJw+65du6irCvtE6+MZVkCedaZupV82uHF6iG4aMEBxitPj7XtgMlG2w8LCaHqb4u2Atlqg77RBwedpeMAXPUNdgHzWqK9Jq5x8yBd7ukDGZWZm0vydvVEmzQUqzu23375z504UUeSjWesRfJgTdHd3i6XeqLE//vGPFelbmA60s8jpmXh9o6xouvc4naIAmcIoGY4Qu25qai9wMgsolhERERkZGSJE944dO9wfyoLdRWksLS0l2oTjrKwsC9V1G9T3EpFu0S3zs7jj1NckSkchcfxgFMQRcn30vyjdaWlp69ato44xympiYuLMO8a+yglk6kcOBP5t5IgHgAkWFhaS1/e01qKg8qPDSsPXNELg5X01AgEwb+vXr6eodrAf6PgqYt6sBhqmWbNm0dAIxdhHw+Tm0Agtjg0NDdX06S1NYq42Qo6GLiqaH/QsHQEziWaBQuLgFw2FY2w3HwXoKa3p1/RR5LNnz/rZ/B0BFQ3mj0osDCI+meLxePxA31t3MDIykpub297eruk5XVFRkZOTo5qSFgnk5+cvWrQIvwMDAyAHKAq1tbWGaM1OnxAWFtbf33/16lWk2D/90z8lJCRs2rRJFlPqM31RoLm5GcWSSKqIkKqakm4KePBA8mlHjxPpgLq5ePHipqYmeWNA10+47bbbUDgff/xxTW/jzp8/j3Ju7ke5KQDGjHwkb2VDpFuv6eBlATDXu+++m2LAo0v9H//xH9/73veIpamj5LQEUA3Ryj3xxBN06nS9j+1KmisA5rp69eqvfOUrly5dgmkAKYdpcNoETUltfWzdgTxTu3z58hMnTojuiDpKgp+Cbl+5ckXT51zRuTdRybVr1wqnUwBNp2GbdqdPeP7553FLd3c3mPLf/d3fFRcXq5BQ/iGAjKbs0BycWqzQoauri5gH3ovcjIqKEgK4gq42LbqhvQ3FE3BdhKsyePCZlSyRkZHgAQ8++GBmZiaIe3x8PEX8df0EVBB8wte+9rUf//jHt99+O25E6p07d86WzEVjKoYHDNXKazo4LWBoUqgZsegVKA9iHuHUqVOgdMI1RJ2K5qaAHFRKDj+glJJWCCQmJoLPxcTE4Nt7enpWrlwJooAOpM+sO4B9mjt3rvuDOWgHt27dKmaG0Nyg8TVrjKugoAC1jo5R8XBKnhroLoho2AR0HVDIxGlGRsbRo0ep2NEVtLzLli3T9BkN3Ig6Fh4eDgETh61oIlDMk0GHt99+2/VgEd1CxxS2gWEK5O0NkdFeCByLqo4XoTih7UMBg4GnzXDJZUzTJ1BhiVEghdMJsj47O1vchTIprLXpwBuhD83Et7a2Qo0pZ+KheX9/P+2hgGMo6f2ZeyQLqAyNPpI7oTzIMXPAxCJNDPObzc3NRDtolQp0CAsLGx8fJ5aJK2BIn/jEJ+Rb0tLSaNmnbPkIM89TcAK8F0bFd3dvN2w3aq57L5IXD6TOHhIK9FfewxbGAhmq6TRXbgSQjCJfoAxutG4KA30SEbNS0+MavfXWW9N1abKHEyBZ0bRp+rCV6NC4ll+9ejXN1GrXZ/imHANxH+gcoOivW7cOFRL1U0SORPqi1qFsCZMvu+ZCKzR/ICuo8GIBJPXGaEkkBEC6QWVQREyPgUpB5ajxpXkEWqJq4isCDeCpKJaib+FaGJm7ZcsWagU077qhCYqJA5RVsqPU1uAK6gXq1EYd+EvYIVECUWiTkpJQWiyauYc1JYJC4dmh1ZTu0BEREXRAyT7zqg1reu3aNTcbXySawZ3QdL901FA8U/YvwVvQWBMnQF0Gf5KjmJPmxPb27dsXpy/xgBja+jVr1lDOEiPctGkTnkyxMmeuJ9L/5MmT999/P7mGQEm0YD7hXoD6KGyhZo17Lw2cUBFFFdu+fbuIEk37X6DkO3JuaNXZ2YnMvemmm2DCaGdt63w5KWYlVX9aa3rixAlie24+wR5OAL0PHDiAJrVRB6rKY489ZthsTUCeL7CuK0YrVmlchYZeRc9bDBsYBl6gGAgBDQMYnkZVGp+JSrtkyZI77riDCKy5OhPVwPNpiSo1vub2bwIK0dHRaH+R9TTSg2YFfM6pXZFXqWnSjmrmGhJHUEkTKqEALF++nCYLUP/lcgh9ULPwLSL6qeCLFPVMjCtYAWIneDvsCrlDeznGPl5dX1+PfMGBa6JMA+Z0bF0MeXdAnNIwOKzpiUlAdoPoEOGjv0pLS01fbIVagOJNruwo4Xh+bW2t1aNfBoDSgS1RMGZ3+jmQhzWR4xHRpt7mAiVZ1HQaywGIq4EQiEUNOM3OzkZBQnGiG6mL+IEeNwkpSbFhLO2/kWkQmZiamur+mgvbfAzT0tLQUkB1CrQJoKnCKX5Fp6G/v7+kpIQG9DQ9p4uLi0UoSnOVFBsT43fOnDloYWVhp29ENq9du/bLX/5yRkYGOKlhTF5IgjSg4d6/fz/K0wyVdDzFw//jP/7jK1/5ClKJ9sZ4+umnyVfL/VdcvHjxnXfe0fS9cSnxvV8eFBFA7V2/fj1yE3aiSgc4Fgoqfslh5+rVq6hadXV1NKmP5KqoqEChtaJMTiZAvqKaPlyJvEOuHT9+HFdQGEgYv7Au0Ere8krc1d3dTZpbqjMUIL8nCiULmrV582bUX+8UMPI73qsjLCwM2ffFL34RtVWW7+rqys3NpdFH4a3stNabouQtt9ziQgAK0CCTU1opLv76179G6yROx8fHrUhJaHL48GEUctQC5B1aFREG2KxXuBa4+eabkWvoiMPWwlLk5eXFxMRM9gTo+cwzz6AiaLqTmfu+ddMV0HQzQReRRCjJ6ImRbyzqGswT/YU2BPURBe8b3/jG3LlzcQVMTtwFNoBUhcGmzpt1KUmZiJT51re+hcaK/H9/9rOfkUouMOFjKOa0nMrJIW6ioqIoxB713V2DhJ3+hTdSdAFCuw60IKKnK16Kz4NNRdMs326ugwYMPEoSmkscoJkQYwaaPk5APSp5oojWVe/Zswd8FhS1ra0N7Z2cPXQ7vQIFGh0mHFjhZoI8xtvFaMoTTzyBHhJ6FYbk1a7nhfvRiuS8Ex+OfBeFhDqseBF4uuyoLMOD4EjkijHZgAdFtqH3Om7zKHt00ilSBmK4+P7776MCa9c7XvQtTjuv8rws+XJqOv0CXUAJEV+ETzbEjzK3TDoVAFCc6KWkPwoecgelVy5ymt7hEz1gYMmSJaJUoHivW7fOIG+Fzok6oB4SjUJ0yzNxpI+m8xXXA9Rof2EkhKvd7bffjnZ2tg6nOuDbYSp27txJk+4wbHg1mpE4ffsfGsYQiYOcpQ1ILc07KIPPjIyMJJ9BGtQRAmi10bmkkmkYWKbuHTSHkhcuXDh16pS4CzQLhRCJIAJlmpibIEwbNmwg/1mQYxg5r8XnRpvW1NSEsnHHHXc060BrQFsGi9kl8r6UnSrkrrAVSmr68ABdxAEKFUoOGgS0fmgZNCk3H3zwQeiMivaxj33sig5q/HEFaYhyiK9wNAdWpCT4yhe+8AVakwmFUcjlPdicEtCJuQPoKsZeXEN2bDFXmOBoRVDi5W0erACNVdAxOadoesui6Z8gvkKkpjxOiwyGzijBk8VI8MI0P+1miyqE4yEdjjLTzQtZ3qlply/S8i1TQO91QSZcFFR3KIgs42aZ1/RUpc0LBGDGvOzAQRYUL6VyiKruIgQCWiLZvwG3kMm5++67vRzdCy01+pp03KrDm28XILdHw9u9Fn6API5pmIQ6VOjUygKi/TEMLCPTkWvEYA4cOGBgscR3J+vLzRB4Mvob5Nwttuil8c7JAE3+/d///c477xRe2+JRBs3JD0Z8KX0IHbz33nsgSTLjF9QcRRrF/q677oIlhl2gfqkXthul9q1GB10JCgoCP6P+g2GGkTQBXUBFo24Yfj/+8Y8TjSCHFetUNYD8fGkegRYEuQ5ONcEJXGtJnTYqneTw7GIAQNMneGZiJPA6cGrhVAgLbV34Fyp5eCNaLvLiEXUSX6FJQc7lVoM4QZ4OuoLCMVltkUMq4S2oDD4d75ZcaYT+oq5SYFoDHXHt34B7cSMe5ZTEqAa0AkQTqU1HCacw417LStQ+NH8yH6UySasMDMK0+kCcCgG5GNPMsaNDjLkwa7Nv04Fa6TUHAprklkcfYVHEvxSEHwVJNpMEcimlWWrZ0V3TA59bPdNP+yMIUlKoQ1abyhgZBQ+e7zgq7Brk/Gi46IX9x2mIEVaPxoyRIOvXr0evwEB9CETRxNAXUgnZTWNdhoFM74DiGgnXGRQkcsl0KjzBCdA0UDQrfLbB19T0MQ3qwVBATfkulI+468AtMM8izn9SUhJ54ZoO4gR4I96OtMNLaRxeux5ezdHLDPpDDA2KYFu09MApJ6DFC+Ivql0oSeYWYsMDQefJOVkMz7oAFVZxasUQ1nQFUANp2ltMTziqLaYAJnsFeAaxWDGsiivkpK1dr7cG9OoQPTYCCgYaAlRmHIiRQ3JyBvV2x6/eRBBPNQBvR0MpT4VAQ3zslAYPyuOBk82hzBxirx06TU5OhkowM+SN4TGGh4dByORpLKeY0sxAMXLSnokybsJQQpAsghPgK5D+uOJ0qohKL5RE0qENlJ8jJvitBswJ2jHH9KTGeSZPNmXjFUOyWAfkkTw9oUkNlNz5ocED4RhHsQUNmYvSu3PnzltuuYV8Fb2gPHRAu0qDnY4LYQScrDuAqNVFDa8gXy06pZna7du3GwgUTSDRXEh7ezvNDVsan5LafTT0rltJ6lehNRFGAmUCFgLNq0E9XEFNxgeKjxXcy0TIvtPIO1FD6Bdvn9Iem6vPzIGvkCv5Ajd2vnaEgTRo1yuwPCUp/4srcfpGPsQJwAhzcnKQffKkNR3Qgp8lS5aUlJTQmKrXYsWLhkYG2hRQeYpMgOymeVaZs7oAktqijoscIVjenttrpFPeI03TGQm5smt6D5tG+GghPjmT2wWnfU1HQPO6ujpbdtBAuZLdaBwLIYoQdUIc5wg0nfTIIVImA8SIxFOCONIFGpYAVq9ejV4rRehCBYSde//9923JRPpYfJpsX2kNsNjKy2n9QlF85plnrl27hnQT8yZWQx68R9K54gRWOK+6FoA2J06cKC0tTUhIEGnneAtaujNnzsDgffvb3wYzQCtcrINYi4lK0rgITtFYrFix4vnnn8cB/ZWbmytzQBjgvXv3QgHZcRS5C0Pyk5/8JCMjA39BYQpd8Otf/xotET4TpfmD6z7hhlfP5Cvwii984QuiwwGVoIZ/R/G0TuDSpUsob6BxaPKKior+/u//ftasWQYx+RgySHDkOGoaTMuhQ4e++93vGtx6zVWSSp1TgZdffhnWghxKNH1dD5U6cTrZV2g6a3Txrwc69/f3o9aINj01NRXF0sWKIQ9e4VpgfHz8pZdeggXt6elZvnw5uN1nPvMZipdMYrgC2pSUlIS8A3FBDfrBD36AimOiDuJUHhRxKgBN0GIg+1auXPnGG2+EhYWhSYTpve222/ArbtmxY0d9fb28xAmJLBpP3EUL8MxNyfPnz2/btk0s/tq8efM3v/nNyXzXXW9APN1l0sg+MTOLTExMTESuyb7MeOBjjz1Ga9MoE8WiA8fvmnluajofMtQUVLGKigrogKaDwkyh5UdpF3mBAkbD3oYHnj17lqzY7t27J1uGYOJXdHd3i1U2mt4gCANnwA2xjfF54FxEWKweK0aquT89ATMM6kCRNFB5KJ6UWX7CyDAUZeE4GhkZiUyiYxQv/EUupuKut99+e9OmTaifsuMoKuThw4fvuusunKJoiiFNPGGyz5y517c8MIvUoE2SvNYJ8z8BtHRo/uL0cNRuPgH0EfaPxmnQMCEXjh49KvpJpiuJ14n1BQYBlNs6HY5PoMk4Fy81N2GbmprAk+iYAoqI4TSLksXxypNPPom+I94uuxAanoAUQ97RYAbayrvvvlsOomCikmgBYCHoyUIAvWH0begUf6HthV0R99I6eCTjpz/9aXELngM9P/7xj1OrhU+jdoYW4KAJMt2VHd1fWGLiNLQ6w7GFsSI3h4eH161bh04gXoom7mtf+5oheo1c7GnNF7KbAvrS6gPTlSRbsHbtWnFRCODtc+bM2bp1K3E1ZCWNGpLAgw8+iE9wzBrk5gf6/PiFCxeoelpXL+TNIdFGoWiJN2oOuGHugHw4vRNaZLrTE4ZIGvgkEzdHFlHZ6VQecZWXpYkUd5pENB1o+NdpopsCiodFWZaVlUXbz1v0rsCBZx5nyAua5EIvIU7f1Towt500xJIDFaDYmtbVgsmAbtCSJUvcmTqhqMMUx3DZsmWmB8Ql0NShnA7gBMLvGG8n6+7YphsmvyIiIoQAxXKdcgZtJjqLGUmLkmUyXL16Fe+CdaeZuynLD3rqyG5yPiNvLRMj3wu4CB2NkrZmzRrqOhq8CF3MaJCqbs4ceQbwOdoBgU43b968c+dO1/noxJ9gSpc0uyA7T9IkLjr0PrfhN1X+mfgYEjcSA7N79uxR1q87cEARzVatWkVbVlKsePX370ZpRO/KFB9DOUIwPpxs7cw19AzoQrjfYYjTg76hC4i8Q5cDatMicks1VBnytl5gIS+//LI3Y1DSS6e7FgZNYpwefAL2D5mYmJjo5VjvoaGhhlUhroH2AeXNom1HCCjVGzZsIKYidm+fkkT6EicgiD4ZbdSBouNbXWQKP0xLGzxQu7u7m+ZQtOu7fslh0hk2ArnZ1dWVmZmJJolWr5g4lGURUNlNiQIr9ykNG5b6BNAdR97RQnwKE3769OnJoq37N9DCPPDAA2JG0lf2O9CuR9SmsWRkIvmke5nNuAkohvrym9/8xtJXiD0BxECyOyN2tvkYzkQgOTn5rbfeKi4urq+vRx1+7bXXDhw4IG9zroKSk13J0iH/5eYTxsbG0PLu2bNnfHw8KCgoJydHRBtV8DMDUwDZQUFhaT0CyF9VVRXF2VVHSflKlA6DzLQeiF5Ienq6iBCMMpmXlzdr1izXOqiZd/v27bv33nsp78BsnnrqqckCliv7FTMRQAvT1NSETza0MEop6VqAAvqi0j355JOgNTExMTATTl0v7f0KmGfymtR0d4S0tDQTX4EqKTx8586d+/Wvf52KsVNz4wgnPobyFfEa1TzCQF1ra2vDwsIoIvfKlSsrKiqQuEopaaKAvOkOGnF5TaY6SrIAXZGDwsJA3nrrrWKGSx0lTZGXhwdEsVTwo9wXoLyL0yPmghy0tbVRxB6llLRCQG5hwGUn+2rFv4IAQ4BPkH3SHUc77FUSBay7u9uKV9TU1IigUkgEkDwXsWec8gMnPoY+BDRJNIcEzVGB33rrLXvXGVsEcj6g3AGjfP75531rYDYAQaux0dOqr6+ncBQ+5/gyJWA2BCEQ7mC2amQOaDMXyjsxBO2x949PgLb6pWMrdhn2PqKjo2kegSLTe9+9wPsw7N4u1l9M9zn27JVsIsg/CO1Ra2srhXLzs7xHHiOniRDk5+fv2rXLOk9jhrmora2dNWsWiiUFxkEV9Q/PNfQp8S20vgBf5JcmE3m3ePFiWEpUPYpe5zrOv49ibGwM9lKEJyc3NLuVMgcgc7RfsPARAUtQ071g5sCnwQjSMI9YNerZo27gBHiWT4SdN4CCy6anp8N8Ut6jZPtHt0xEgiN3QlocbLdSjGkARZEiYSMfkYNHjx6dlnOygkAVE+sL/NvLFbUvTgc+FuTg3LlzdXV1ditlJmAyN23aRL4gcoATu/UyE/go5ODWrVuRiTgQwTT9CfIwj7w5pGe4gRNYtLmWd3DgwIHbb78dLS+tR0Ay+ZDHrCPkBYfUFfNXhuv3oIXdKJlg8fHx8d5f2WUiUK22b99OQWzErLOfWREZtK0XuRfU19dfu3bNca8pH4Xsl+5PUz+OwGfOmTMnKSkJH5uamjpzq6kU4vSNyOn4yJEj5Lc4E9yw7uD9998Xf3jg7mi7wK5du8AB09PTR0ZGKK5RU1OTHJpbBSWnFKCdINAjoZY3IyPjhRde8GZcWBYwXQAlc/Xq1SUlJQMDA8uWLUOrNFl8bhW+wqm8PMhM6wtcODMr+FEeC4CRnzlzBnlXVVUlr3JSSslpCaCFQSNJ4Yrnz5+PjzIE1lVBSXMFEhISzp8/T6Gsy8vLu7u7d+7cSbGu1VFyugL4lscee4yqJD6woqICxs6DVxhww7oDOS634p6lkwmAB5w7dw4NFsUrXbVqlZhHUEdJFwL9/f1r166lGRynUSZUUJIFPBCAQY2JicnMzERbjFYJOUuj7kopOZm8PF/gGH7Adp29IFBZWQkesGXLFlrlZNj4WBEl3RFAC7NhwwaaeE5OTnaM96eCklYIUChrci9o1yHiXqujpPsCYr4AZkIETvWgsmsO8HkfQ0egtSIesG7dupGRkezsbHKJsluvqdHS0gKbIQZm7YoLy7AIyM0jR44QIaDZTZ/wzivXQcf5+fk7duzw3Sm5mSAtLW3x4sXkyk5LoJuamuxWanpoaGjYunUrtTAiJr/dSnkV5DMBc0A+Ir29vT43GSRPKwcFBeETzN0r2A85AQEZf/LkSepz0xJVxd275G0qZALL8DPIC2jj4+NVzms5xi2AChV3fYe3wARaFQrhjDRpbm4eHx+nsKp26+UWRDAJ9CxNNyQ+BHIdpaC/1OT6EC2AqrStg6bn4+nTp03PR7/lBJoeNJt2DkQFBrVfsWKFvGedOqAFMzSaB97X1tamft+RMRMgfylEDEomOiswM5aGPfcMtLxbTGOR/7bdStkPijxBDL61tZViqyu+ygmlC4aEsjI0NBTNYMASAgKsQFdXF20OhHwE97VizyTTQU4tdEy7UlmxttknYxu7L4AkQ+eGBj9HRkZQCCoqKuRYs7YreerUqS984QtivgAFdP78+a5vUTOpWWBaAlQyc3Nz6+vrYVoiIyNra2ud7qHufSXJy1W0PmvXrv3+97/PXq7ylX379iUlJWVlZdEqp7NnzzoNA2z7V1y8eBFKipGezZs3f/Ob35w7d64sY7uStgggs9D2VlZWwjSgAsbp25kmJCQopaS4IkcQX758uYtwyB68woAbfAwJ1BtQ2b1iugLIbPTJaLAoLy+vubkZ1N47G4G7FpBXdtEYsuIpyQLmCoAHrFu3Dr1MlMz4+HjH2XrvK4n+k9gCh9yXoJVq6aaCQGpqKlpnit0E/rR3717Dtkm2Kylviyfi2CiYknYJoKIh+xYsWABWB3MLkievyVRESVyRV42iMsqxemf4Cqf8wMncgaXbOdsFVIYjR46QewE5USOhbYy1cuXKFdq/S5tx2CmGTwNFkWa4+vr6ampq0HexcVNB2QdNtiK2KKM+YE5kn7UVK1aos3u7PPFM48z+Gn5ghkB+IR8TExNR7MnzrKOjQ5G0gkq0VyedHjhwID093eqXTnACEbDIX6eayL2ALDGYQVxcnF1b2ZINoK6YLduTM5QCapwIwor+CsXl9P7kvQiaqUnLXrysgy+CfNaoRqPH2aLDRn3QkkMlMiRBQUHFxcU+serKRiD7+vv7YW7J8wyn6IvTRJ6NkD18KWydd1Sa4ASi/vtxQ4BPQ8qKLYXi4+P379/v5VCXhq3kQAgCc5t2hgEUdTUzM5NKJi0V886rDesLvPlq/wCF1l+1atXAwAC6HEhMi/y/pkR3dzftB0inTU1NMw9sFwgIDQ2FaRAO6aiApsQE9BiyW6iXR+yczB0MDg564cU2AomLGkszNKmpqYYZGutg2LcqKysL7/WPTXEYpgBNUldXF0wLea7BzHghGIBh/wKwZLYiHgD9DeQdhXokn7UXX3zRy8OQKDAwZjT1Q/sX+OtWFFaAVpSIWEBJSUl2kWO530hmwpsddSfrDq5du6Y5eB/Y6HJphUBycvLp06fXrFlz8eLFmpqaH/3oR2CFngWGdFMALUVubi75++BF9DqrP5MFfE4ApeLcuXMlJSXgjhSL84c//CFFQTZdBxgPeX1BbGxsbW2tpbXAvwWQTWKVE/qaSM/vfe97XnNlR4FBC4M8pfkClYNnqyyALuLChQuRkhTv7vjx46gUXktJkBJhJvDSF154ISMjQxazQgcDnKw7IFuliMuldQKRkZG/+tWvyIMDeYDOmeMkrlk6yPGIDLzP9nRgAdUEwsLCmpqaQFjRJJ06dWrJkiWyC6pZOshOLZo0X6BssviKAK1yotlJ9DVl/z6LdJCnftB6Hzt2TPiEqZxQygpQGPJt27bV19eDab366qsFBQWG1TdW6ADy8eijj9KIHc0XGGKfm54OTvmBP8csmhIgYmLPOosmcUHbKTIGnVZUVIC/m/h8pxgcHMR3UaOP9mLTpk3qh+NgGCDcoWG2ly1bZm7JhN2i+MqagxVhzBy0myLtbUHzCEhti5xGZW5HQS9UjtbqK4BRgIWeNWsWTAPStrCw8K233qqsrLTujfJ+x4JHTtmntwIBzQkIFKuA1u3QJC5aTFPmb+T1wWJDo5k/1jVozANNPFoK+qjbb7/dCytYGKYDVgRNPEULIId2FCF0IGb42IyMDOHUEhsb29bWxpTRdIi9LWgeAf0N1H0QO3PfUldXl5eXR8fUswwNDTX3FYEMYnLkeVZVVXXhwgUrlnTKcWw1BQLbO+EEFvFZlYEsgQUlt2EQww4dM8x7mfd5c6d5kFmUYNIfpY26KVa/lGERoqOj0eOkVYIUSdcQGGe6QFE3eLkanBUYJoJC4hA1b2xsxLFZywKvXLlCu7/SaX5+PvVkbOlZ+jHk8CHUloJ4mTiohgpIwS00PUDhoUOHbB+xm/AxFCuRxBUXp/4ngH58T0/Pk08+CT6I7J83b15aWhoo26xZs6b7irGxsdzcXNHybt68uba2Vkha+hV49YEDB4qKivA5uPjGG2+gnKHroFRSs8B0BVAOV69eTX5Pa9asefbZZ0VkU/dfYfByFaGU7fqoABEA8br33ntLSkpoj+y2trampqbJ/IvdfEV3d3dGRobISlR5cEchrGY6+K5AeHj4mTNnMjMzkc4wDXfccUdpaSm5cM7kFajLDz/88OHDh+kUz3zkkUdgblw/04rPNGDCx1A4MaEvgsZCZR8QiwSQH+hkI+9pJKe+vh7Ztn///sn8AZ2+AjeKgSAKNCF3063+CjQW4+PjwcHB5ESGVgPmRAsAj1G/FyC/J5QlFC3Yg4MHD4oZR3eeIHu5JiQkwDKp8FEBIhAZGYkEpxiR6HisWrWqoKAAvUPPXoF8zM7OplNkpdxAKZ4OPi2AdP7qV79Kq3bB7ZCbx44d8ziUtTxfQNPKtG+1lz/TKT9wErMowCFvhwpqP62gcpCnmDOaTeuDadyJspJGKQcHB6EVrzj3A9BkEGgrOp2tra0UUndKD5WxsTFaNE+nkN+9e7f1yjKMQKN/7733UvAJGBVkpQd78VVVVSH36Tg5OdkndvPzG8Tp25kSLx8aGoqPj29qavJgZlYOPyCmlc1VdSa4wZ8gPDwcn+qX+x1MCyJ4xfbt22k9gjtxjVBccnNzBSGgGf0pB2rMBcpWWlpaYWGh8IWpqamZN2+eN3VgWIqioqI5c+ZQjDP0F1HqXE9RU8RW7fqGRrTPlpd0ZdwIsXs7TU6vWLHC/bjmhki3FPWSs9LLIF5Oo24jIyMwDdN1CZRH7FCXLV3L4Blu4ASwKGhoxMYHAQ7kNKorDRbBsqIogBVOts4HVVQM6Hk/8pSM2tranJwcvJ0WRAG2B+5mmAs0K8hcGnukHqdTd2iwUsiI8KiQYW9T2yHvbTEwMIAcQTZNSQvkDY1oAJJ3SLERVJVotzB0wJCh7kSkRXbTJnzadVaXnJzsFX2nB16L6AqwpjSPQLspghU68np5h8OgoCDvb6BgAHQQTf8CHdyZ8D/QDBcVPHKHNtgJuTvCGxqpBsosmBOY+WXLlrkehpRXMDk6EDBsAerXH/7wB1oIioqGrpfrNb3gDTExMT6x4+gNsY3lTrAX3B19QgCs/M0336R1xiB6yNfi4uLS0lL6t66urqSkhHKaIptGR0e7fqaan8kCPieArsbhw4eLiopgM/r6+qhk5uTk/PKXv/zGN77R09NDwnv27MFFw3O4iNouAB6wfPnyL3zhC2g9aBjSMbB0d3d3bm4uZSWal7KyMhghg2u64p/pxwKoVpGRkbSWBz3Ge+6554UXXjAMytItZD6065mIOiv+sv0rHHFDbOOjR4+KP1Rz+7RXABmJrpjYY5tG/9AWC9ctciBAM63yV7CA/wlUVVWhGaKwKqLpIaBMojuCTsl0XZFt/6gAEQCNe+utt8hnDS3JokWLDhw4IMKLoT2hBke7npU05qfaVwSyAPLu9OnTtDP1+fPnDe4FEECtnCzstApf4ZQf3DB3MHv2bLHJJsMAZH9TUxMtK6ABW/EXaiw5Zk5JwRgM04FGB/YjTg+wLy4KpxYukyqD3JnJqGh6iMlr166B4dHEEBECr23cyvAAyEERIB+n5F6AK9qNO4760CIRIycQe6IwHJGQkEB1VcShFCDf7+7u7ptuuommdWnO7/3336dQdIbVJleuXJnWpCDkxXoQ8h+EJuJf8htw/QTcMtkbBwYGRkZGxJNxGhkZideRtymuzGRDZ3Kh4i2hLQVSGPmFXzRAKji1MNwHGRXUXxrjyc7OFu6EnJW+ApC2u+66S7gXoNFDhsoLgJHFvsLOb+AEjqaOYQCaXWR/fHy8fLFPhziVhxD8A8uXL79w4QLaqdjYWPCbyYgjrWUVpxSbwbFQgR+AKlEfiO5yZ3luRETErFmzYPmEByWtqnCUpAUXt99+O8gNGUvtRhJGm0Go6fTrMfBRNM7X1dU1k+DHDFsgz06K8Z6mpiaOLOIryMnJ+fjHP06zeEM66LrPDfPc4GMoQwXfB/UFFi1aBEMVHR0N8xMcHPypT33q5ptvHh4e1qYC5K9evUrHFJfUNfDwsLCw/v5++SKaD8MV9yF80IC5c+d+9KMfpVCproXBfNF3AUUwCJw/fx5JIT9Tm5xiGuan5PrjAoJ0G4Jwu5CcTBgXDx069N///d8KliiPBVAYKBmRlTN8hTofFVACINwnT54kp8KEhITS0lJHh2XblWQBF1fQzTh9+jR6jDTsOn/+/MbGRmSrEFNBySmHK27wMZT7eSp4cKgpIOI3oB985swZNZV0R0D0s9EFNyw5mewJNAniQkCe4yBQt35aSuIh//7v/y4GEgjd3d2CRRHcmTExzNrQfkIgJXPmzNFuLOTTVVI1gRMnTtCVf/3Xf5U7l9N9hVIfFWgCIAEo54oryQIuBCIjI3Nycmga6B//8R/FoKZSSsqnmgOcxCxyFGLIEJzA11cJC5s6JXOUb3EtgDRBNXAsmtMCHoLG0fAEU/bgiNPX8Xd2dvp63jmC3Jo0nTzxgDODYRdEmBAf3XHU6GOo+b6pYzBcADUWnMD/XGeEz6nsfMpgMLwMXzegN3ACGknm2MauIbKcw4v6Iij7vLw3ldVoaGgQXhpT+lswGAzr4OuknNcdTBuCE/g6Hwxk+FneiYkDcbpx40Z7VGEwGL6MG9YdxMbGik6GCv6QagoYPN3UVJIFAkegq6vLMDYATiDvoTzdV6jwUSzAAr4u8LGPfcxwBbZjeHg4IiJCHSUdccO6AwINiavp1amCgCEWlZpKssCUApq/rDv4zne+o90IUITW1laKdTPdVyjyUSzAAj4qIByx58+fLwtUVlbu2LEjLi5ucHBw9uzZ1dXVUVFRqq87IPjZsCqD4ccYGRkR+x8SQkNDcREtDse/YzC8D6cG9MqVK2VlZeAEBTpqamrADNT0auK9khkMH0Zzc3NISEhLS0tDQwORg9ra2kOHDtH+re4EiGQwGCbCEKCFAB4QHBwstkdCnQVln3IY3xY4WXfAcA1OJYY6aGpqQuMSFxcnvJ1DQ0PRIwFLYE7AYHgfTscJUB8ffPBBOgZpUHkM7wYfQzlgkQq+D2oKCE5AriJqKskCASLwzW9+8+/+7u8MMuHh4f/1X/8lJKf7Cts/igVYwHcFFi5c6CgwOjpKkaq7u7s7OzvT0tKc1k1bvsIAJz6GFJ9AWQ8O2wXQJ6PQlRQPWE0lWWBKAc0vfAzXrl1Lp3LvZIZuR7Z/FAuwgO8KyNGphUBUVFRdXV1kZCSNEDz77LOrVq1S3cdQdH/Zx5DB8DlwBC0GQwUISypvItPR0VFdXQ3bin8pmggq7JRddlvAPobThq+HqWL4JbhYMhgqQHCC0NBQcRFsoLS0lProwtNQTUxwAnZHYjAYDAbDFAwMDERGRtqtxbTB4wQMBoPBYJiDuLg4iitqiHjrK5hYdwBSI/+hgj+kmgLCx1BlJVkgYAXIvXkmT1Dwo1iABXxOoLu7G5VRcSUdMbHu4N1335X/UNar03YBQ0gKNZVkgckEyIXWcXGNUkp6ICB8DNESrVixwuNXKPVRLMACPicgz8Irq6Q41RzAcwfTBu8l7dMg2+l/W4DGxcXRgYETMBgMb8LpugMfghNOwDbPNcTcQUdHR2xsrN3qMKYHKt7h4eF2K2IyeAkxg6EU5HUHPoQJTiDGHp2Ga2Yw/ANUvHmVDYPBMAvoaVRXV5eVlRmuDw4OtrS0KL740IAbYhvLUMH3QXEBooGKK8kCTq84jUutmpKeCYSHh8/wCQp+FAuwgMoC//7v/15eXg6LkJOTI7z1z58//+KLL3Z3d+fn56ug5GQCBjiJbUwDBoo7R9goIKaLRkZGNE4o3xRwjEutoJKeCcydO3eGbkcKfhQLsIDKAitWrFi+fPmjjz7a3NxMCxGBzMxM/IpQRbYr6fRUc4ATfwKemHQN3hfRD+B/mSjcgMbGxmxVhMEIRKSnp5eUlAhCIOBbEwcarztwATSyL7/88sc//vGlS5fimOPJM1SGcAMKCgqyVREGIxCRlpYGTmC4mJWV5XN9bOYEzgESEBcXN2/evIULF6ampmrOhlnE6i+Gz4F9DBkMhokIDQ0FA2hsbJQv+qKNYE7gHBs3bhwcHDx16lRwcHBDQ4PPcT0Gg8FgeBMpKSkyJ4iIiIAdsU8dD+Fk3QFRGxX8Ie0S6O7ubm1tLS0tDQoK6u/vHx0dfe655+gvdZRkAc8E5Bjeyippr4CCKrEAC6gvkJycHBoaSr7nQF5enoJKOvUrlOFk3YHjlel6M/q6QHt7u3adG/3oRz/C74YNG/CX4xO0wE4oXxQYHh4WV5RVciYCYWFhvO6ABVjAFoEHH3ywpqaGrsTExKippHyqOYDjGDqBmCkYGxurrq7WeC0Gw3fgo9HTGAw/AHqSxAnCw8MNGyD5CiY4QUdHBx309vYmJyfbo44a2LhxY1lZWUFBAQgBMSRwAkGV2D2NwWAwGI6Iu+5UmJKSYqceM4CT2MZs88AAQIxaWlpA9AYHB8EMZFcRTh8Gg8FgOAK2IyQkZHR01HeHlid8DPEldEw2TwXfBxsFwsPDRUDK0tJS8Rd+5Qlpxb+CBVjAAwEFVWIBFvAVgZiYmPb29srKys9+9rM4VlNJF5jwMRRzB+KK/BTVnCNsFJAd1zVOKJ8V0PzUx1CbWZlU86NYgAV8QqC3t/fUqVOa7ov20EMPNTU1idkEdZSUTzUHcHwCBoPBYDBmisHBwZSUlNHRUTodGRmJj4/Pysqqrq72oakEJ/4EDDfhQ9nMYDAYDOvQ3d19//33EyGIioqCPaX4RfhtaWlpaGjwFc/9CU7AFm66QK5POTfDYDAYDP9GdXX19u3bafux/Px8WsG+UcfQ0BCIQmpqalFRUWVlpc2KugGeO2AEIsSOQQwGg+ExBgcHy8rKaEggPDy8oaFBOBDExsbiX9AC+reqqury5cvqzyM4iW3s9AoLOJ5+cH0lgspKsoDTKzRTpriSdgkoqBILsICCAm1tbbm5uRTMePPmzZWVlUFBQQYbsW/fvocffhiEoLm5GeTgtddeq6ioSEhIUOcrDODYxp4L/IVDtGMFlWQBF1ds18FEATn8KK87YAEWsFqgrKysvLwcByEhIej9Z2VlTfaEFStWNDU1xcbG5uXlDQwMJCUl7dq1q6CgwPavcMoPJuYOeDSVwfBdKD4gyWD4DWhGoLOzU9PnCzo6OhYsWDBl/zsnJ+fWW28FFRgdHS0sLGxpaWlrawsODvaKytOAk9jGDIbfA6WdQlH5DdBO2a0Cg+H/gC1PTU2lY+FO6CbAJOLi4lJSUvr6+kApEhMT8TTV2PwEJ+CtjxiBA+EH5DdgTsBgWAqYSPTyyWEQ2LNnT25u7nQfsmDBAnRI0P4QLcBBQ0ODUoEAJnwMExISaHZEXJHlbPF9UFzgA/Yx9FmB7u5u23VQVkBBlViABewVOHXq1ObNmymIbWxsbEVFRXR0tGevCAkJOXPmTF1dXVFREZhBTExMW1sbnmnXZxow4WO4YsUK+Q/bPTjUF2AfQ98VoG1MFVfSMwGNfQxZgAXMEzAMD+zbt4+2xJvhK3Jzc8PCwjIzM0dHRync4e7duw3uBVZ/plN+wHMHjMACj7EzGAz3kZKSQu6E6N+3tLSYOO2YkJDQ29tL7orgHGfPnt27d6/t8wi87oARWGDuy2Aw3IG8viA2NtYKf0ByL6C4Rj09PSAcOLWXFnAcQ0ZgQexQ4q8YGxtTcIETg+FbABUQGxpFRUVZum6Qoh9u3boVr1u2bFlpaWlZWZlF75oSTjiBaksjGAwTkZyc3Nra6n8zCAUFBeQj3N3dbeLwJoMRgICRhoWm/QuysrJwOqVr3gyxcePGu++++4EHHhgaGkJFbmlp6ejoCAkJsfSlTjGx7iA0NJSO33vvPc0r7o4+KiASCswxISFBTSVZYDKBpUuXCk6grJIeCIjmo7+/n3yYPX6FOh/FAizgZYGBgYGSkpL29nYcL1++vLa2VqwvsFoHvOjs2bPp6el4e19f36pVq2pqatauXWvFZ7rAxLqDyMjIqKgoqPKzn/0Myqnj9qmaALKKTtEhAydQU0kWcC3Q2dnpOMaumpKeCWi87oAFWMAjgbKysurqapovMAzge0cHtEjoajY0NGRnZ4OdfOlLX8KpGPYzXQen/OCGuQOaNWAnLNfg9PEPDA8PgwfbrQWDwbAf6CEkJiaK9QVgA/n5+XYps3HjxqVLl4IK0DJF2hzBa2+/gRPw0gNG4CAiIsJuFRgMhhIACRDrC9BNd2f/AksBTgBzvHbt2oGBAdocAfCOe8ENnMDvXbJngsHBwfDwcMfrV65cYa9MBoPB8EWgARcRCLzcI3cN8JIjR45s2LCBoiB/5CMfwWliYqLV753wMdR0ikRJoznMNFjh2uBDAiMjI3fccceePXtycnL6+/vFv93d3StXrvzFL35BcfEU/4qAFRgbG2tra0tLSzMIXL16dXh4WB4wUPkr3BS47bbbZvgEBT+KBVjACoH29vbc3Fw07/Pnzz906JAhXLHtSqJpOnPmDDSsr6/H6UMPPVRVVQUbZK4OBkz4GBr+UNMHxC6BsLCwqKio8vJyKkBCoK6uLjw8/M477yQxxb8iYAVA3TIyMoKDg8Gy5VWImZmZra2topIo/hVuCixatIh9DFnAzwTQWW3QYdYr0B+g6q/p4QeOHj2KRt72z3QqACuzZcuWsrIyaJuXl/fCCy+IWf4ZvsIpP7hh7sD/Fm2biIKCguzs7JaWFnEFxxcuXNi0aRPPHSiOuLg4UDdULZkTDAwMoI7Z6ElkEfBdhr1LGAxfBxrbxsbG6upqUxpbeb6AAhTaEgnAfSxduhRK5uTk1NfX9/X10emCBQuseBfHMXQXGzdu3Lp1qzzbhLwJCgpSZ/6J4QLIvsrKSrQFghPEx8drum+RjVqZCLEchn0nGf4HFG+YbVMIAW0xgNYbDwTJEBsazfzJVgMt2Ntvv42eDJS/44479u3bl5WVZfpbbtgDiVfZuQZ6mc3NzfKV6Ohoi8gaw1yAuqFGgV8PDQ3RlZGRkfz8fL8Z4+FFQww/RkdHhym9L5CAwsJCTafOx44d863WG13QlpYW8QnZ2dl/+MMfNmzYYG4jdsMeSLzuwDVycnIMnMALXqAMU4BqExcXR+HJBPxpjIcJPcNf0dnZCSoPWlBWVkY7FztdAuYag4ODuJEcCHD7kSNHfIsQCOAroDl+kSbkXoCUMZEWTKw7iI2NBQ2hCM+a9R6VviiAJAK7HBgYEFe+/OUvq6YkC0x2+tnPflbmBBkZGWgaXN+i4FdMJiA3CjN8hTofxQIsAJAhj46ODg0NbWtrO3jw4G9+85tpPQF96yeffJKs2+bNmysrK2HsVPtM9wWSk5NXr14toiDPmzevoqKC1iN48AoDblh3gEQXaxEVcblUTeDee+8VnCArK2vu3LkKKskCTgXWrVtXVFQkTr/61a8qqKTHAvI4Aa87YAF/Enj55Zfz8/NhyHEcGRkZHx/f3d0tO9K6eILsThgVFdXQ0EA7ESv4mdMSoCjISJMdO3aMjo7m5eW99tpru3fvnla8dqf8gH0Mpwfa6Foc26oLY3owON+JkBL+AfYnYPglBgcHR0ZGxDRfR0eH+/dCWOx3jL41CIHf+A8R0MlZvXo1vnFoaAiG6fLly/v375/hN97ACXhKckqIKaiQkJC4uLgpx2EYSoE2SqbjoKAge5VhMBhToqWlJTQ0VDS8sOuxsbHuEHrQiJqaGjres2dPbm6udUraiKVLl4I2UWe1vb0dVkmMhXiGGzhBX1/fTBX0d6BoUrRHUDO7dWFMG7RRsibtLMxgMFQGeqpie3rwA3SI5SAxk92C3nNPT4+mO4FVV1dHRUVZrae9IB5QWFgII75s2bJ9+/Z5PIx9Q2xjGXZ5Tygu0N/fT/4EZ8+eHR4eRmFVUEkWmExATLa9//774+Pjs2bNUlBJ2wUUVIkFAlYgJycHFo4a21OnTh05coQM/GRPqKurKy8vHxkZCQoKKi4uLi0tVeErvCCQn5+/aNGir3zlK/j27OzsV199FZ8fEREx5RMMmPAxNEwcqOxeYZdAW1tbZmYmzU6BhC5evBiMNS4uTiklWcCFANoUOh4bG9u8eXNTU5OCSs5QQGMfQxbwI4GwsLDBwUE6JTfDyZ4grzaELXz55ZfFELpnOtTU1AiziO7E6tWrxQN7e3vl4YoFCxZkZWXJT+jo6IiOjpY9/tCfFEvZZ8+enZKSEh4ebm5Krl279ty5czBJfX199fX1Bw8edG2hnPKDG+ITOP7NEEDighCItZqavo1kYmLijh07/GmZux8jNzdXOBMAqJ/j4+P+53bEYAQgUJHRDlOHzen+BR6gsLAwJCQEj4VxpKbj8OHDNGuMi2KNnqbPRa5Zs0a8Ecqgp45eR11dnZABoYGdjo2N1XRri4dXVFSgKz9DJQ1Aa0bxnRobG8lCoSM0LfcCXnfgFmR3FfBBFAsKGQGKgKxFBpsViJthBQzrkTZu3FhWVoYKg3pOkcNn4pKjCETx4/0OGAEF1G701kTokfz8fLTGU46QuwlYdyIBV69ejYmJQdNBIwdoTEpLS+XI6PIboQDJGJ4GQiDWTVA4wujoaLkfbwrQFEDtBQsWlJeXw0Lh+SKEsztgTjAFUAJoKEbTPdXFqAAlNBIdx2BksCvIbL/3ZPFFiPDmmk4IKOYXrmzbtg20HcRu2bJlSu2b7hlEy5Khw1GAOigGoOGYM2cOGjukEogR7QeBixTpHM/Er2AbjsvA6EpERAR6SHgCOYePj4+Dl+BpuBEX8QT8e88997ggXsPDw3IoMIOGAOUatc544LQqGumg6avaZuugjxUCuIJX/Pa3v42MjBRiN910k2Gpt5cBncXYrelmw2+AJKKVeJreWUc5MYvfd3d3a9K+gGj88SI0+GLPFOH5aAD+RWtDruiGkibnIxqcEydOwIhYlLngK1AYVRudn+zsbOq4unOjE07gB30ms4B2atWqVTQeFR4eDvIl8g+tBhIdrUZJSYmmzyPAtBiYI8N2yCOKCQkJbW1tdB3ZV1tbu27dOpAD/AvCjpoMwmevGZgJUG1RRMVuDo5w7LWIi1VVVU5vIco7JVw8WcAQFNwzUJh3e0FtPUgJihDMw2RrtSCG1mNkZMQpFXMHKJCG3ITN86BxJlJFjI3oHdQWy9XQT71w4YLHbT4lAm4X9EWmMo4wsEx6wl//9V8joYiukarER5ECdLxkyRJ00zWJ3tFUvRjS13S6b+5WgUQQ5QeCcNA+TJRc8jyyDNrQGcqsXr3a9RgkWqRHH33ULIUdgVd3dXWRCaupqUFyodGj73KBiXUHIqIL7kxOTlbKo9IWgbq6uqKiInR6ND3zmpqaHMNhQgB/5ebmUguINhTskiQV+YpAFgA/q6ysRNVFdlRUVPz93/+9QQDl/PTp08g1WCzUmZ6envr6ejm0kQpf4b4AGiM0W6L7gg/v7++/6667fv3rX6NJRVuA7ji1rTIuXrx48803o4WlQosCjGNHMc1ZlCc8E5J//OMfP/rRj+JddIq3GMTOnz//u9/9zvGBAh/72Mfmz5+v6RtT4XYiNzjW9N4YjOuf/vQnqokzAXLWaVAKPH+y9t0RVNOnXLYtKJFTwuQZ0LJ78LTJbqHr9Cv72VgK9/V3zUcNzwHvJ14rV40ZVrTf//73+N2yZcvevXtRI37+85//53/+JzoVEKMxrSeffJKclHN0iCfAcMAogD185jOfwbFY+OD4FhR75CkqjmhzTG8u8ORz587BQrW3tyPRPv3pT3//+993zVMn1h0I/wgicUq5nnpZgEJAULEz7Kfp+AS0g7Q5BxViJP28efPELJTKn+nHAnIOwvAjB8H3nT4B2YeKjSqN/Dp16hQ4tevsVuozDadxOmb4CtU+ygMBQ1eVZjE8e8WgDm0SiC6jfAt1ZJ32lUF3rl27pkkj0i6AJ99zzz2Qpw40PRNd6ltvvdXx9imj+9GUEJ7w/vvvz5kzx9Cfps+kQVCQQqeMcDKAusFGopsuxiEuX74M+uhmwMGZ770HBglCYHqJokGa22+/Hd8CJUGdDx8+TEn08Y9/HL+LFi2iPfDQaOBeekJLSwsSZOHChTj+0Ic+hGM8R05t+S1g0pqegNR3t6hewLKDypDb46VLl+Lj48V4tiPD0OS5A5GFAT53gEyl8WQcL1++HCTRnQRBEiPjt27dig4H7k1NTZ1J1AjGTECln46zsrJoKM81UNVR/jds2IDWDffi2J27GGoClgk9IUPj6Blo4J2Op2x/xds1vUSZ3sSjIaIrjiqJOU3V+Nl0BYjPBQUF/eVf/iUdE8cihxJBOzSdTNDwBowu+mMWTdqK+X4iiOLVmj484BgbkRYo1uigK1BsssaEXBYoN/Hwxx9/HBSEtj009ys0PRI/HgsSAwtFXhGTuRewj+EEkFiVlZVizArNCuiV+xPMSPR7770XdoXGFcmtY9euXVapy3AACjpqINVGNCu7d+92n5ahwT158mR6enpnZ2djYyPaoGPHjk0598ZgMEwE7Wlu4Do4NZh8EhDeQmTkIGPd4q+EhATYe9eeyNABMjAcpG1/f/+jjz7qYrykqakJwjDVIARof5577rl3332XHCnMVZ6AJ4ttDtFIMieYAoYFLTS64nRoxQUiIiLIy532SUK6X7hwQfi1MSwFuviCkIWEhPz4xz+e7pK80NBQWtqLjEPnIz4+/ujRowE+bMZgKAu0tLBzKSkpqPWoszCl1oUbycnJSUpKQvsghmQcAUIAgkLrADW9V3nrrbdS55CaETkwIExyT0/PmTNntOurB5OTk0F0CgsLXb/FY8gxFbKysiYT49jGf/YKoXCYmj5fUFlZieykvzx4xb59+9avX19SUgIrBZIBalZbWyv8s1ROB98VQDo/9NBD4+PjQUFBIHNpaWmOYafdfMWuXbvuuecelAdkX0xMjBwe1eqvUERAQZVYgAWcCoSHh586depb3/rWM88809raunjxYhhv1FlHf/DpvgJPhi1Au03X//Zv/xZdvu7ubtqBCc/P00HCaG3AS2h/JtwoHgVDAE4AKkBXQFwolCrYAG7Zv39/VFQU/kIfBoRA00Pl4slyQGJTEgpqwx4RIcDzkUQuerwTPoaGP1SeczJRALRORLNxHG32+BWJiYkwJ3F6YANk/8qVK8m9QNl08F0B1DcK2qW53B99Wq9I14GWpaqqCuSgRcdkXoqKpINZAgqqxAIs4EIgODj46aefRhuLBhb9OqqwhjiGHrxi7ty5NN8vTvv7+8Ubr169Sr35wcFBWl0JATFCIJ4JyTNnzuAiHg4zjFaF/iLvVMNL0XV89NFHQRqE5qYkVGFhoXBuAMs5ceKEGEpxSgsCeu4AVADFiPxLDeEHZg6KMSnmI8AWUXoM61IYM4QcjygtLc2wf8EMUVFRsWTJEhAOPJ/CHXq81pzBYFgKdO3QGtB+B6iw8fHxp0+ftjS2LLUGsr+nU99AMfkYGhrqItwyNAcboHhZZmkIsrJlyxYRGiQrKwud3ik95AKXE4jF69r18Ham75+L3IWVAi0g/1gQWLBLsY0HY4ZAEwAORytEqLib/goQDlRpeou8hofBYKgGmGQQd4oZTJE0fSVsObqj6Mr/93//t4kx0+QIjyKg02TzBTKccIJAiNuPPBDrCyg+tjbJQMoMERQUhMwA+yNHmKqqqr1795oYgDNg0d3d/cADD8BUg8nBToNlW5F9mk7zab+1xsZGlBnUNN42icFQFqiqIPExMTEUttwn1oST7yHaMTRrsBczb16IGNExejJIE/efOeFjKMZF33rrLXJ8kOU8c21QUAD8saSkhMbz58+fj4ZeuBNapwM5wtBCR5gxg+eamgmlrAAtGf32t789Pj5eVFSEiiT8iSzSAbQDLQtYNl5KfkwVFRVpaWmWfqaNAgqqxAIs4L4A7NfJkydzc3N7enqys7NB4tHOU6BMdZSUr6BfumnTJrRjME9obWSx6b4CHU58OEVajIiIePbZZ1NTU2WxKftOTnwMQVUSEhKU8iIxSwA9dTH97Di5YqkOeBGsFzIpIyODokagpIISovgqmFDKCqDECxcQQw/Aah2QfagX999//8jICDLx9ddf37Vrl7IJ5bGAgiqxAAtMVyA6OhqGjJaFd3Z2rlmz5tixYwYHQNuVlK/AQHygR8WdyStycnLq6+vpGDwDTRYYhuvKrjlgYu5AXjrpl2hvb09KSqJjCm83JWMyHehchoWFpaSkjI6OwrDFxcWBFpjo2OjHMESUOnDggHDi9RooYiu5F9TU1IyPj8v7ozMYDKVAbuPZ2dnkXiBCzvsf0C6RWdFu9Jf3wMZNcAKLYicpArEfgbx/gS1AVgn/WGRhYmJicXExe65NCTAAmvGhEm/XEgByL6D1q6DkaGtMmf9jMBhWgNyEacvg1NRUP9gV3REiSp52fXhgJi3SBCfwV6+3K1euiAgEIAQqUEXyj6V4eTSPQBG47NVKWcjzBcnJyeTi5/0xHgFaZUrZh3IFkieCIjAYDNVAWwavXbsWbQhFCUSFNX2VmV2AOaN1bfii5557znELhunCz9ciGjY0OnTokBXbS3gG2qyPvEPB8np7e6EtOsF266UWyPRq+ureZ555Rh0XYmTfvHnzSkpK+vr6eA6IwVAZFHU+Tg8iBwuKZuT55593ES3AJyDH44+NjQXRMcV8+G1sY/S/i4uLhcNFaWnpI488MmvWLNfP9LKS+fn5YCqbN28eGBhAYV2yZMkLL7yQkZHhTR2UFQC1Ly8vpxKPVPrBD34wf/58WcZ2JYuKitDWgJiPjIzEx8fj9KmnnkIZ86YOVggoqBILsMAMBdCNpsVfAGjBz3/+c3Q2aPWQOkq6L9Dc3IwOCcXjL9Xh8SsMmFh3YPAxVMonc7oCcrgGUCeKXKGakoSYmJj+/n6aEAKPAe977733vOlOr6ZAW1ubcAh1GhZaBSVxmpiYSLEO0cpUVVUZlhcroiSvO2ABFsApLf6CaYiLi7t06RJ6X3V1dVRh1VFySgER7UbT49+cPXt2su28p3yFU37ghz6GsgemmH62W6kpQIGyyQsyOzsbn1BdXa2+2hZBzBeYHnDaCsjeIeReQHu9260Xg8FwAvQPUUM3bdrU09MjKqyvuBfIs+FoHl955RXTZ8P9zcdQmBNg8+bNPrRUDAQWpRP9zrGxMXIvCEDTIu9fEBsb60Mu/eBwqEFbt26lzRFwarsrK4PBcAqiBWhswQnIH+jUqVMmxhW2CCUlJVVVVXQswg+Y/hb/8TEcGRlZt24dmROkFMiBz204hKLZ399PXwFQBzRw9t2R9y/wxZ0FwGbmzJmTmZk5NDREq55Qb+1WisFgOEFQUBBoAa1RR2O7YsWKl19+WdmOsTxfIK+em9I5wANM+BiSt4KmO3g7vsxE5wgrBOrq6p544olLly5puj9aU1NTRESEakq6I4DEB2Ml70jad2fPnj05OTlKKWm6gOwQiowDIUhLS1NNSXcEEhISTp8+nZubi/5HYWHhD37wgx/+8IdofZRSckoBBVViARawQgBNTXR0dHp6+sDAQExMTEVFhdzYKqJke3s7OTLPmjUrLy9PjuZuyisMmPAxpAjJAIVXVNO9wlEABAr9Mwo/oN3Yv1RHyWkJBAcHg+KgmJJXBApBc3OzGEVXREkTBWSHUDn8gFJKui+A6kMLoGnz03nz5slbXimiJPsYsgAL0JXExETUUxAC9EzQ2L722msUKkYFJa9evSq21Q0JCdm/fz+0NfEVTvmBk7kDtNG+Ml4tjzajh93U1KS4P5r7IM8XMpZgPBSY02++TqC6uhocDjnoZ9knR0/DcQC6hjAYvgJU1f7+/scff7xRB+19GhUVZa9WcneXNjv2TvQaJ5xA2TkVA6qqqkpKSugYSfbyyy8bNpDwdSAjUDpXrVo1MDAAZhAfHy+vQ/V1GOJLnjx50v+yr62tDblGXoe+spU7gxGAQJ+ERihramrI6/DHP/7xihUr7NKHBhqpuwvrRp2KKYf9TYFP+hjCnIBA0YiKpntgorvpnfTyMlAOjhw5smHDBvIuKS8vv3r1amVlpd16zRTt7e2ZmZnyelFfWQs0LcTGxp45cwbtC+13hc/Ex9qtFIPBcA5aPZSdnU2+XKdOnbKFxxv2L4BW3ny7740TyMvVNIcNc/0PERER5B9LaywpMA7FM7BbNQ8h9qPSJP8Pv6R02vVVTzTDlZqaWlFRUVxcbLdSDAbDOWBN0BOjGADLli07fPiwNxcVy3u7oJtkS8R0J7GNqcc2c29G0wXQRc7NzW1ubqbTmJiY733ve6GhoR9M4oE53VdcvHjxnXfe0fQtcR0FRkZGhoeHw8LCaF2Gx1/hgQByZNeuXdu2bcPno4fd2dm5ZMkS2UVWwcxyKjAwMFBSUkLhitPS0kAIwHgmyz5lv2K6AlFRUW+99daKFSvo80HpioqKRBlTREl738gCLKCOQHJy8unTp9PT03t6esDj0UyBx8uu/hbp8MwzzzzxxBN07Ng8mvIKpwIGTKw7EJdwPHOHSdMFurq6HnjgASJQmt6/RD7JUSZm+Aq586rpo77V1dVozSFgGJmQlzZUVlbKPg2rV682DOybmA6gI21tbfjqqqoq2UVWwcxyKlCug04du8szecXg4CD4NX5piAvMWl65AK6NHKTrMulGiSJ2AuGlOsC9LEoHFNT+/n6UqO3btzfrcBqweYbpYIqAgiqxAAt4WYBWD6HbiWYfrRaa2VdffdWwZ5KJOsiz4eHh4SLimRcqu+YA3/AnQJZs3boVhlDTO81IMmpPTXwFSgC5vmv69ARFFTx37ty1a9fIxhw+fBi/0IQMG9ECGGmKj0R3wVq///77lk7/wJrOmzdP3k1R/Qhc8v5dNCBm7sIWeTGqdj0iMr2CZuboGBknT87l5uaiHwAmB/XANXHXsWPHLPVzRDlZuHAh7eNAEax3796teN4xGIGJoKAg6g2iASEX79OnT1uxekgOV0zbG9o7LzzBCdScn0Z7jZZUOFxYGu8WnID6kfhFaqSmpnZ3dx86dAi5hcKBK2Ah+Av9USIluHL16lX0L8WwAXXiobCliYnnIwVgVHBMEbgsKqymADkYp29RqulDKSjxtB+Vua/IyspCz5sGdUCxkTtvvvlmiw4cUHbU1tbm5eXRDih0465du4jPkZIlJSUgeSYq5oiEhIQzZ87QsBNKNRgn0VAGg6EgxE40AwMDcfqW6Oa27XIw/qKiIhX8xyc4gYJGxTBoj3afokl4AZQaw8PD6MzBksnlACpRJ8/Rt5GCJ4I0WE2wiJFQUCMUVhzLgXHUAY3nW70fFcWBpmO8DslC1QyphGPxV05OzrPPPgs+JziBSDFohcq5detW03VzBC0xhWKtra3Nzc233HILOKWajJzBYIidaMRWJqZ4tRsWY+MtioRCn/AxpDlX7focgxdcG1wLHDhw4Gtf+xrNFwBPP/30448/7vqWGepw8eJFWNagoKCRkRGKHxkeHj40NLR+/XohhgNqvmHt6CKEr+oAgTh8+HBoaGh0dLT8WIsSKjY2VoTRJRdZ8jr0gi+MOwJIEKRhXV0dchAqCY9IOSVN1GHhwoXiCkoy3njq1Ckki5x3AE6rqqrEFSgpjs+ePfvRj37UawmFooLEycvLa2xsPHToUFNTU0JCgrmv8FhAhfLDAiygjgAa2x/+8IcPPfQQWnt0CNFWGAIMT/cV6AyUlJTQfgJpaWloHp1uKeCdzzRAUR9DdChpbFyTpoet1uHSpUvx8fHipfv37587d66mO4iRmCwPTkDH6KZ/+MMfpotkilx4PpqbUOQIA1tLOwXQ0Desi3W+MG4KGFbU0FiLpTrs3bsXv++//z7eBTq/a9euN954Q9MXpwgx3DJv3jxNH1egEYLt27d3d3drOmevqalBzfRmQoHPoahs2bIF3CUpKUmE2WAfQxZgAdUE0JIcPXqUAsuiX3HixAlDlDw3XyHPhoMHPP/882Ktoy2VXXOAoj6GsLjiGNYlLi5uSnYzc1AOzZ49e4EOXOnv759MWAz2Ch9D3Lhp0ybvu4zV1tZeu3aNCllnZ6d1vjBuAnlHOz5reuLg1DsRuMi6I1+QHSgzSBbNYUaMcg3VUqgKDkHH6Lh7P6AQugjr1q0jfwuQkpaWFqv9HBkMhmdAR4LiDaOxRYUFj59uSyvv7aJs8FZFOQFaycrKSrIr5JbphVDP4ASG8BTCP0C+SKeCE0A3edclErjjjjvQM0ZxQdfTCwEyyXGPFiMMDAxAHy+HvjJAzPh4YZqcDDxyYdeuXQaOrDn4dqAsaXrp0vSE2r9/v5zjXiAujkAhoaBGaGXQWKC0tLW1CY8HBoOhFKixRQNLjlxobKlPOCVGRkbiru/OA0IAfuCd/QumC3U5ATjU/fffjxSkkV4wMlsoFfqOYIXIdeGPJtsVTad+hltgh0AI6LrXzIxMVx1V8iZQT8CEKGwD5Z1YGWgFJuPpiYmJeXl5yCy5xsr0jgifI8gvEl+xbdu29PR0E1WdDEQLPvKRj2g6nZK9IBkMhmqgkUjaiQY9MVrf5Do6O9rkdevW2bJ/wXThhBNAXRX2RYyOjoYmSH3yoVu0aJEcLMh0oBV2ug6N1qLE6atQaPFoa2sriAL1PqHk8ePHHe+i9YrowhoCK1kE2jCDjoOCgtzkrdahqKho/fr1cXqcf1rae+TIEcMun+bCkQaFhoYiv8hnmPgceDrEsrKy5LscA5fiCnF/b9ZYOcv8O1Y3g+EHgEVHrxVmHt0eWCg0Mi424YPtSE1NpWPv718wXTiJbTw8PKw5dHBt8YcEn0K6Nzc35+bmov9UXl7e3d1dW1srogubqAMy9c4773QUAPs7ffo0er3kfgiLu3nz5srKSpK86667DI/FMdSbNWvWuXPncHr33Xe/9tprcjhkcxMKyfKlL33p2LFjdLp8+XKkj2Hhwwxf4ZlAeHg4eee2t7eDTSclJYkQoabrgK8m4mUQQFKg5MTExKSlpeEUqYTj3bt3k9htt92Guwy3dHV1oZKDzOHez33uc/PnzzdLycmuoLqhdFHEbiTOCy+8AMZpKFFW66BCZWcBFvAtAbTqZ86cofCsaDQ+/elP19TUUFMjgNoNY1FVVYVjdGtRu9FRcVG7bflMA5ysO3j77bcNV7zvDylfSU9PX7x48YYNG2BaYGBwLOIYmqgDuTE6FQD7a2trg51AtxI9TnmwGt07x1dAnngVKV9XVyc7HJiYUPIKV+16/AZ7M0s+hcVFfdi+fTvyi2pOtQ7TY/qeOHGCDgwCtC6DgCvPPvusPBfwve99z3GBBgVbpAl+8Lm33npLzm7TE6qpqYnWHWg6+6SNE3ndAQuwgK8I0Egk2uFLly5lZGQcP34cTRw1GnLtBhWAETGMGdv+FU75wQ1xDNEq4QMUDF4ES3z+/Hma14eG2dnZaD0dF91ZCiSL43rIKSG6xaZDjohJyzXVnIRGuqHagFPn5eVR3g0ODpaWlpr7Cm1y/hunw1HAsJeVAM32aTrHR/W2brpKXnArAjpNyeIZDIZSQPOC7uLatWvRa4WRopXY+BW9NbHM2F493YST2Mb4GHnOVR0goUEO4nTXTVp0d+zYMQUDwFH3nWaIm5ubz549a/or5B2bNm/evHPnTgWZnIycnJxVq1ZR3kFzmNu6ujq7lXICuTiB1FuUqoYQZmAD3tyPlcFgmAu0G0eOHEETh/ZtaGhINM6+WLtv8DGkTqdYva0gaDd6CngMUmZipEkTAUMiOEFbW5u5rAVfvWHDBhHvedeuXSCh0x29sAW0updsYX19/euvv07Ot3brdQNQllCikHegL+Bz5BRiLvDVFJRas3j/DgaD4TVERESgfYu7vreLpvs5nThxwudqtxMfQ3LSVsH3walAVFTUqVOniouLDxw4QGPRr776Kk4dt5q2Ucl8Hea+YmxsrKysbM+ePePj40FBQfhkdL6dRsRUJx0MVyhMB2ztY489hprzkY98RHY8VERJlK6mpqbf/va3IP5Q2PUt03oFcvDFF1988skncYCMq6ioII8kE19hioCy5YcFWEBlATQXR48e/cQnPqHpU5M//elPZ82aJcuooOSUUxhOfAwdr0zXc8FqgeDg4Lq6uvT0dOpvodN58OBB9LcME+r2KmmugGEzIZADES9BHSXdFEDGRUdH004NtDc58s7q4MfuC6B0QTfTXyGHMBPrkWzPCxXeyAIs4DcCwsXtlltuASFQU0n5VHOAk/gECs7QO0VsbCza2YKCgtbWVhjL+Ph4sfWtn4HiEhIh2LNnD1ksn0ZERERHRwc+qrCwEGYSZO65557zg++aDOSriBwMCgravXu3arNdDAbDXLgwo1euXKE+nve0mQ58mBNouqroYooGFwYGlsaiDXltgeyMBg6EL0V/2m6lTANN25N3SF5eHm1HabdSJkPe8gR55yKwCYPBCASglYORAi1wHfrQLtzACdBmCf8IHwLaXBjO9evX9/T0tLa2gij4nKunU8irDZOTkymm8pSzQb4FkOXe3l7aVqS8vByUzp987rq7ux944AGaLxDRI+xWisFg2Al0hGpqatDBM3dJtlm4gROovOLANcADYE62bt0K0wIjmpqa6jRGhK9AHh4ICgrasWOHX86JCMBYrlmzJiMjA59MYz8qRNeeIfBRKJC0HdS+fft4voDBCBy4GG5H244+nuqcgLov1KGRr0x2qqAAbCda3iVLlpSVlaEhphjUTU1N8lY3tivpjkBlZSV9gqavZnnppZcWLVoky6igpOkCaWlpYWFhubm5AwMD8fHxVVVVjjTIdiXdFEDZKy4u7unp0XTPiQMHDsjRphVRUqk3sgAL+JkAcYLJBDZt2tTa2nr48GGxD4KNX2GAT647cCGAtnj9+vXkeIhGedWqVWIvS3WUnEzgypUrW7ZsodD3ISEhUBvKq6akdQLgcKdPn0Z/GnlXVFQEyyq7hiiipGuBq1ev0mAVnTru2qWCkq4FFFSJBVjAVwTEzqt0MNkTEhMTk5OTv/nNb37xi1+08Suc8gNF90qeCWjwuaOjA+lOjoe9vb3V1dVqOnQIUCwmGqoJ2FA2+GSRd+QagmNlHXQNoFUwNOND0ab9YAaEwWC4D/c99NHap6am0h46Fio0fTjhBCA4ftCWxel7H1MAA4pBfezYMTVdvpHgNLCh6ZEunn/+eT9wkJwJ5LxbtmyZT0zGi/WioJ7y0JTdejEYDBvgSA7q6urWrl0rrpP3HhoNdB68qdiU8O21iK5BAQxgWvr6+tD/jo+Pb2pqgr2xW68bMDAwQFGyNV1hL2/spCwo71BhampqsrOzW1pannvuOTUpHfSM0/dx0PS9J9Tcx4HBYNiLvLw8x4toPbyuyBSY8DEcGRmR//CCa4MXBMLDw0+dOlWng5zX0nQkJCTYriTFKv7nf/5nmJPly5dXVlbS8IyaKel9AeTdrl27Vq9enZub29raeubMmUOHDkVHR6uj5Pj4OEgA+X+EhoaWlpbm5OQomJLTFVBQJRZgAV8XOHfu3O9+9zv53/Pnz3/yk5+UZWxR0oAJH0OYTPkPNT04PBAIDg4uLi7etGkTuuP4xmYdYrG4XUrK3gOkjO0JpaZAYmJiTEwMrcxcuXIl0oq2J7ddSRD8devWEZMW/h8qp6SbAgqqxAIs4CsChvX8ssCiRYsMT0APx/bKrjnAD30MnQLtdVdXFwwMuYCRZ/ju3bu9H8AAhQZWTd7pmEebXQN5BwqFLnh9fT0yDsYYBjg8PNxGleS9qh0XFzAYjMCEHziGBwon0PQABhRjnwIhw7oMDg562b2/u7v7/vvvp7nnkJAQKIOOr9fe7tOora1dvHhxYWFhX1/f0qVLHbe88g4o6iKF+wwNDT169KhqbsMMBsMuwMTYrcJMEUCcgFBQUIA2PU7f5ZriGsG6eMetkpbYUTAiebTZC6/2DyDvYIBpPQJS0vvhHdvb25OSkuiYHUIZDIYBPE7gk6CxaKIF1Om0ehG8vBEO4K/7N3oByDXqqYPPicgT3qmHyLKamho6phxkPsdgMGQIfwLfXb53Q2xjGV5wd7RRICQk5NSpU1/4whfwi05nTExMWVlZXl7erFmzzNVhfHz8pZdeKi8vJ2c0vKi+vj4iIuKDyX1NlUooBQXCw8NPnjyZm5tL7gXHjx+vra2lhSQW6dDe3l5SUkJOuMuXL8frRKxilRPKYwEFVWIBFvAtgVtuucV2HdwUMGBi3YFhIkRNr04TBYKDg3/4wx9u374dnb+xsTE0+kiBtrY2c3V46KGHYFHoOCsry9Gr0fZ08FEBGOZ169aByfX19SUlJSFt9+3bZ7oO4IvyAE9RUVFlZaVS6WC6gIIqsQAL+IqAMKPXrl3TlDejTvnBxNxBALpKBQUFVVdX48PR7qP1h/GmuMimJIXsjEbuhDidkqMx3EdKSkpcXBztj2CFx2hnZ6dYLxoeHo4cTE5ONuvhDAaDoSAmOIEfOEd4BnI5FOEOcdzQ0DDD6MLyWrWA3bzAC6D9EZBftNEA5Z0plE52CAUVoN2YmNIxGAxHULSSc+fOiSu0BxLtgeJb7f8EJxAbOgUgaK8dCowzOjqampqan5+PfqEHj7py5Qr1XOm0oqKiuLjYTF0ZDkCCgwfExMSA1ZmyPwKRDBCCkJCQmRNEBoPh34DJHxkZQVdQ+BgSCcAV0AIfIgSa7GNo4AQq+D54UwCt/w9/+MPCwsL6+nqc1tTUnDp16qWXXlq0aJH7rzh27NiXvvQl6lxGRETU1tbGxsYq9Zn+KhAVFfWrX/1qzZo1AwMD2dnZx48fRz564DHa399fXl5O4YrXrl2LYhCADqEKqsQCLKCyQHh4OPokYl0SsH///p/+9KfoHJaWlgoxNb/CgAkfw7i4ODHcrSnvHGGFAExIXV3dfffdR+4FPT0999xzD5iBGIt2/YSWlpbMzEwiBJOF4FXhM/1VYP78+bDotGIQRr27u/v06dMyQ5/yCV1dXSKilKPToiKfabWAgiqxAAuoL4BOiNyB7NGh6cunSUwFJR1PNQdMzB0ouEGTLaCB6Dh9pzsY+Dg9qBF+XdxiCD/gE3v7+ivIaTQ7O3tgYAAHDQ0NrvNOAJK4i44pXPGUhJrBYDAIERERUVFR5FQugCtutj/qYIITGDZvCGTAlgwODgr3gvj4eBcx7eX1BUFBQfK4AsMWEKvbsGED7YQpPAQnk0fJp7zW9CkkqwNYMRgMvwQ5qstXfDE2nZM4htwgatdjHaanp9PUcnl5OWz//v37DdEF8G9GRoY4PXnyJKeeCkAuIC+QfbD0ra2ttD8COLujJMgfiDwtOAwNDW1qauIcZDAYHgC9EXn+He2JLw4YGzlBeHg4r7kSOHDgQEREBGUzTEtiYiINTdO/crBb6l86tToMW4AKiRyhRaEw+cuWLTty5AhyUJah9QXkQMD7FzAYjJlgwYIFaEZoxFHTPQlsVcdDTKw7iI6OxsHly5eJEKjgD6mCQGlpaUJCQkZGxsDAADI7JiamuLgY9qaqqoqC3QIQqK2txUVlvyJgBZB9aWlpubm5yLuHHnrokUceycnJQU6NjIw8/PDDhw8f1vQZH+QpJJX9Ci8LKKgSC7CATwigtRGcIC8vT00lNZeYWHdAo+JjY2M4nqE3o58JrFix4vTp0zTljPSRR4dgTnbv3i0GiFT+ioAViIyM7OjooEEd5B2N9PT29orhARFRROWv8JqAgiqxAAv4isDatWvpNCQkBB1INZWUTzUHBOK+iB6A3AsSExPF5gWaPs/yyiuvgDHYqBjDTdDSUHACUAFB5HmDSgaDYSLEdoi+65bEnGAaaGpqomB5mk4I0NcEGbRbKYa7KC0tBS0oLCzUdBY/5RJTBoPB8AzoeNTV1eXm5tqtyLTBnGAaCAoKEqtNNm7cyM6YPoeCggLiBMi+2NhYu9VhMBh+hYaGBnGcl5f32muv0QilbQpNHxM+huLSB+xj6PIKAV1MTijfFRAOBPK/4+PjL7300sjICPkh2q6kXQIKqsQCLKC4wMWLFx9++GF5chlobGw8fvx4WlpaWVkZupS2K+lUwIAJH0NxiX0MXQjI/3JC+bSAdmOxb2lp2bJlCwiBpoej2LVrV35+vu1Kel9AQZVYgAUUF+jt7aUgaZrutgwGsGDBgo0bN3Z2dqJJqaqq2rt3r+Nkpe1f4ZQf8F7JjACCi2CdqMDbt28/e/ZsR0cHjlGBwQm8qBqDwfBJVFdXgwTQOiY54u3JkydpodOojsTExP3796u/ySrHNmYEECbb1GNwcBCVFgT/rbfeAsGnWj3lIBuDwQhkyGHRnQa2R0tSoKOxsXFsbCw1NVX9tU7sY2gyUAiIGJILG4fGUxOGQTzwgJCQkKqqquHhYZs0YjAYvoTu7u4HHniAwqKHh4cfO3YsMjLSUWz27NkULzUmJga0oLCwsKWlBVfEqkXVwJzATDQ3N5eXl9O+iMhyFJerV6/arRRjAi4WH3Z0dKxbt25kZATVe3BwUNkay2AwbAfsemZmJmw8jmmXNdfr0pcuXdrV1bVq1SqKjxKnb7erZix8XncwPQGB6Ohox4TasWNHbGxsVlYWLl67dg3HERERCn5FwAqIYQBwfOSOLID6+dprr61Zs2ZgYGDJkiUU7VjNr7BaQEGVWIAFFBFA+5Cent7T04Pj5cuXl5WVJSQkuPME2IJz585VVlZWVVWhuxgTE/PCCy/IW+jZ9ZkG8LoDD9cdwKjE6csRhQA6l+fPn3/22Wdx5cqVK+hxbtu2TbsxbRX5ioAVEFtU0PiNQWD+/PmhOjZu3JidnQ3aZ9gzSZGv4HUHLMACtgjQnmp0ZfPmzXV1ddN6QlhYGDgB2EBBQQFoQWZmZldXV3V1tV2f6ZQf8NzB9CBWZziGrgQnEAKUzS5GqhnKArkGTtDQ0MC+BQwGgzA2NiaC2IaEhKCFz8rK8uxRKSkpcTrwtJqamt7eXqXcC5gTeAjHpZtgCUFBQchgZDZxSZDB2tpap44nDNWAOvnKK69oui9xr46Kigq7lWIwGPYDrcGmTZuIEIhd06YchHcB3I5n0gY6nZ2dsB2gBcnJyeap7DmYE0wPLlZsIpvBAOrq6sAJ3nzzTRAC5HRERIQXtWN4DpD3lStXanqgcpB31HzaPZzBYAQy5PkCc1cSHjlypFzH6OhoamoqTg2TlbZgwsdQeMh/wD6GLq8YrssCaTro+PDhw3YpyQKTCQgQV5MFUNu/+MUvfuELX8Bf4HZECNT8CqsFFFSJBVjA+wJdXV0lJSUUfgA2+9lnnzX4jM/8FaWlpehD5ubmDgwMPPTQQ3l5eRQF2cRXuN8qEiZ8DLu7u8Wx1a4Nvisgjum6mkqywGQC4njdunWag49hTEzMjh07UEXJWUTZr2AfQxZgAasFDMMD1kU6R4Nz+vTpjRs3tra2VlVVnThxoqGhwWkTZEVl1xzAcweMQMRk04GKhxhjMBhWQ45OGB4eDgsdd33HO4uA5qilpYVYSF9fX5wevSDOJhd1IydwHXiBwWAwGAx/BW13QtEJS0tL0Unw2k5AeB3eVVhYODo6Gh8fX6rDO6+WYeQEjkvsGAy/ASq83SowGAxFAQZQU1NDxwcOHEhPT/e+AnE6QAvKy8uHh4flEAjegZET8E5IDD8Gb/7JYDAcMTY2tnXr1sbGRk0PadrQ0GBX4GF0y9F1ATno7Oysr69/++23oYw3G66JdQfUherr6/uA1x24vKLpIS3FdQWVZIHJBG6//Xb5LzWVtF1AQZVsEaClWN3d3f39/ZozwJDgr8jIyOjo6KCgoPPnzy9atMippDvAc/A0PGpgYCAsLAwNsjtRs4J1QFXHZc94SGhoqAopqbgA8rG4uJgIQVpaWm1tLXn+26Uk6MjJkyerqqqefPLJ1tbWxYsXJyQklJWVWZSbBhhjG0MbXnfgQoAOenp6eN2BLwpcu3aNjoeGhsLDw9VUktcd2CUwOjqKPtng4CB+caz5O0JCQmJiYtavX5+SkiJ6oorkhdcErly5EqeHFKTohBs3blRESdAUUIFVq1aNjIzU19cfPHjwxz/+8YoVK0x8hVN+MDF3sHTp0s7OTgrVxJgSvb297HvhcxABRNHugxPYqgtDIaA8PPPMM2h5Xcigl3bLLbeQ95l/ALynXUdBQQFoAcyhXb7udoF2MUY6IHPPnTun2txiREQE+TzCLpPj4e7duwVrsQgTnEC15FAc7Hjh0+DSziCgItPScHEFZBHcMS0tLTIyEuWEqD+aZjTQYWFhJDOoQ/xLmKxPJoSjoqJohRueT9ujCB00vUz29/ejU0gXodV0h7LoRZreY8HTcEzTCoZPFv0ZHNCHw9406oiNjW1ra8Nd00lCb4DGb8j/zpQHGhwIjh49qmabgJyiDRHKysrAR7Ozs6nEWqctxydgMBgBipaWFjSvNE2AnuKDDz5I+9NoDuY27sYV6jDqjgZ7MizQQc8UJg1XHEd6YZKnHNp1/SLSSrzFncFk2EWkA0gP0gGUBfdWVlaqM2AAKrB27Vra0bS8vDw5ORnazvyxMLFECEJCQvBA5P7Mn2kdUEpRMjMzM9vb2wsLC0ERoLNF2yZN+BgKF5UP2MfQ4UpdXR14ZVFRkbhOQS4vXbr0V3/1Vy5CUSr1FSwgQD0zNZW0XUBBlawQaGpqot3rUX+Li4v/4R/+Ye7cubKYCkp6QSBLB9o3JAiMbk9PT3x8fFpaWmlpqWMIcO8r+fjjj4Mq5eTklJSUHDlypK2t7erVq8gyj1/R3d1dVVXV3NxM+S5iAKiQFy4EwF1ofwQwtr6+viVLllRUVCBZTGwVCRM+hmJrefYxdLzy6KOPgkQnJCSIv95+++1Zs2b9r//1v1CqQDlVUJIFJhNABoFWHz16tLe3l64QJ1i2bBn+AgFXQUlFBBRUyQoBmBYiBFFRUdTlUlBJbwoEBwfn5uZu2LBhy5YtzTpQXzo6Osjr3EYlocb27dsXLlyI40QdM3mFiFi8fPnyQ4cOia62UnnhQoDaK/IwyMvLa29v3717t8df4ZQf8NyBW0A2NDY21tXViV0hYFQaGhpArtWchWLIiNN3r0b2FRQUFBYWavr05MGDB1Gv2C8kAIHc37p1q6Z3kXFstzoKAa3ZgQMHbr/99pqaGvSCUHHOnTsnvChsAazgzp07xSpij4H+AJlSTSeCoDsKuk24AwpgQE4w5CJq7m6NTnwM0UpyhGMD0HCgSFVVVYkr5OURFBQkepkMZUEeVej6EKEODw8fHBxE6xAbG2u1Ey9DNaAiZ2dna0wIJkd1dTUaN9rDNz093d7on7B2MEnUuUdtBUXwYB4d/QEa68Vxfn4+PnDKIXSVQfsjELVFvxT9HOQRTk0x3DesRaQD1Bm0lTN/tJ8BxZG6mIQhHWlpaRY5ejBMBKoQinRnZycZA8o7Tad6NmvG8DqIBUZERHDuuwDNh8ISo9aU6bBRmdLSUtCCmpoacoeEhZrWQmIxXwCTCdvpN2vIUZLnzJmzfft2dG9aW1vj4uKOHj0680EdnjtwF6CrSH2QMvkiOIFd+jCmBfQMli1bJl9Zvnw587lAA4oBjR4fOHDAbl1UB0wpLVaEQYX5sbey0DD2m2++CcuHpvjw4cPu3DU4OJiSkkI5npycjNz3syqfkJAQExMTp8dcAuLj448dOzbDb5xYdyAuRUdHaw7eB5Z6VPqKAEqV3JSg64ksUU1JFnB6GhUVtXnzZjkojaPLru1KKiKgoEqmCHR1dYHWa3q/E62cmkoqJfD888///Oc/v3Tp0tatW48cOWKLDgMDA5/85CfpODw8HOyksrJyyieMj49/+9vfpuEBYM+ePajvBjGlktpjgZCQkDNnztTV1ZWUlCCtlixZUqxDrIab8gkGGGMba7oDqhUOk34gcOedd8r/0niaakqywGQCMAOCE4AioI1QUEnbBRRUySyBp59+emxsDFmPmquskkoJhIWFff3rX4exaW9vb21tJd8pL+uwYcMG4etWU1ODvj4Mnuay4b1y5crq1at7enq068MDfh/IPDc3d60O0AIwIfI2WLp06ZSVXXPAxNyBHFeL4RQJCQmCeMbGxsbdGMaEoTiQX+KYPUMDDWADFLPP+1nf29sLK0UBhQx/UXxDw9qlQQmaXm6p6HboIBk097iIPiItgDLMkePUrPVQaWlpO3bsGB0dpfjHpjxzWqC4UhT/sbCwMD8/nyidC3moSg5DpaWl1HMLhIYaBayrqysxMZH2KFi2bNm+ffuysrKm+xz2J5gGIiMjUQnJeVU2MAyfgLxxHGdfoEFYUytWmlC4WfwaXPTBBmjTW00f433++efT09PFLRSWTtOHxGG6SDHwgDvuuIPkYdrpmfRYmGR5ZyYInDt37uDBg7LvM+HkyZNmlfDQ0FA8CnQKVhZqeL/iwNThc7KzsxsbG998800Xk+VIOhGdEGofPXrUIndCZIqIdOJIv8S/cjBsAMVAFA98BXLT9PV9QUFBeEV1dTUVCSTa5cuXaVjFffB+B9MAUpx2itLYqPgy0ATzGE+ggfYdjo2NtcLLDH1TGoSQt0YbGxuj/QbRXaNFdBkZGTAS1HTg9+233z58+DDkwRvQfEMyOTmZVkOgg4uLsBnySC8Igej40uY9lTpotR7ehabpN7/5DR5rri3E8+nr8Jku2j3oQEPWMOEmvp2ABMRHucg7sZuRps8Mvvzyy+jCma4GgZJanFLYKxoEEvaYQFlPx7DNPT09ECafR2jruM+hKcCTkVAUtLukpOTs2bO0uNTN2yd8DC9cuCCONYfBFiucI8wVuHjx4i9/+UvQQ1RFomNOQ1gHBwcPDAzgVw5ITPjYxz72+9///urVq+RlSZuj03bm1MUcHx8XO5RArKurS9NnqXERLQ4OLl26NHfuXJzK25lP+RX0HAIKFgVY9TgdfFcAiVZXV4c0pwSnKk370ztmFpIaHRfaId7wFy6KjedpDxjKtZtvvpkugjujJRXPdPp86OC4ecxdd901a9YsWQdkFumAV5AmKqTkDAUUVGnmAuSpTiHJTX/Fs88+iyej9di/fz8afbr4rW99CyXt2LFj9FKYczRQTU1N4CVVVVUwDL/4xS+oqYFuoAuPPvooOAHdS/MCjm9EGaMrWVlZaOvxBDqFMG6BoQrVId8188+EwvgE1IiDBw/u2rXLUQCVtLy8vK2tDW0mrWM3PTdjdTj9Lrz0a1/7Gnl/U7hi8rCzrkShsqelpdXX1//617/GcWJi4vr169GM19bWghBUVFQUFRVBqxdffJF66hQUHxYKB/iXngBrnZmZee7cOSuUREHCk0EfoWRjY+Nrr72G91Ic3in7QhM+hqIF/AvfjG187733CoPtBSQlJTleREE0LFb0DGAGNAEJxofKr1pSWySwffv2mpoaOpVpuOlAHqFCWvd8AbSkaKBB0kW/TZGkDkAfw3feeQe/6enpdN3EV6AHAnsJu97b24v+opD5+c9/DlMh91bROr///vsQgDkHdQAhEMLgCrJHF+q+YztMoCtoHw4dOnTfffdNJuBxQjkVQDHGN6KBRdeTRi9ohBwADSJvPnyRO35tHuvgVMAwPCB2BrJUByQFOAG6B5E6Nm3ahIaru7s7Ly8PxpjG6tEbofGV3bt305X58+fjIj0EHYkHH3ywubnZOiXxCnSxUMagFRSGwcrPz9+xY4ccvdEpP/AffwJvEoLJYAoh0PSgOvhFTwI0c82aNfbGFvUaxBSdDKJH8jTqtECTsprehl64cAEZJDxCvIABHSkpKezAqwismCGl0X7k8vj4OOqsmD5A1htG2tFnoCabdiU2PIf2XKBjcimAPCyu7NmH7jgMiXa9soj9e6yGGC2nMXyxybIBNHdAKeBOUsubTSOtyBnTUQzm9q233oIOeD51lui6rIaYVfEO5BqNY+EZYMjxOD2quigS4utwAG29EBswJydn1apVFNQZxIVoq+us8R9OIAA2RLXI4OIxPDyMWir2LdV0lkTmwak1mhLIV7QC165dw+1URGJiYm666aZphdCHSrfffrucSTQtR7SA1A4QTiCA6k1VS25ZZApMLtlyVmoOlPnq1asgAe5sby/Q1dUlWB1ulGdzhXMQeYnLLQJVeINzGZ1SMyqykmEjqC9rutOZ7FdIEwGovPQW170U15rQsiby75Ov02guij2uo5WT3WYthdC2VYdTGQqbQ8dWjPOJQURHeJkQaDqro0YABQBfTVMqmkO2EicQFoGsMt1CezR7QVVqneL0uEbIFxQe18Ec/Y0ToC5VV1fTseNUnKNxJZNDFU+dMc9qHY7uxAECR+8qA9zZvZ4cQqf1XnksV7ux/BhKiDw+SX85LULp6enUq2MoAtkH0KwHEucT+Y6Osjv2yXU/BA9x3KoRqKioyM3NFadTzg0HCOQda70GWBN058AMaMZEdgsTMHQVyLtZ010RqdfhFU3/x8zRFlCgMrS1lQt3USMnmFYcaQUx2Xf6HPwmKPd0gRKIEuwfjZ2j6yLDXpi+DSZtPAMSQBUWp2h2qVuG/olhzmhgYOCNN95A/z45OdnwF03Pi8HkyRzsbd/KLysr67HHHnvttdfwyfIAGBIB306jaIbtlQ3MRsRd0CYZY3NEd3f3nDlzcJcYOKRBX1whHcCTTpw44c2lc8ipAwcOOHZLXBcwWn4iTr3cyiGDzp4929PTA1qAQjiZqsbYxpcvX/7AN9cdOL2ooJIsMJkAQcyqqqlkIJRJBVWaucCiRYvOnz8vX5/5K65evXr8+PGCgoL8/Hy6AlMBTkCLC2D4i4qKYEFphH9sbGzz5s1QA9cffPDBjIyMw4cPp6am0l+rV69Gv1NwAti8qzo0vT8qFtfgir0pieoZoQPkAKa6s7Pzn/7pny5evAgzQxEGp1x3EK5DJJf49QDkvd/c3Aw7t2rVqtraWvlR1qXD8uXLHQWio6ORTXv37hWLRzSdBSKtaMUEil9iYqKNVa+9vZ2qADBr1qzJWmBjbGOUTh9ddyAgLiqopAcCWsCET5a/V1kl/b5MKqiSKQK0iBQdUxMnCmEUYZbQ+aPrJABjCUuAg69+9avgByABuAJTil4aOrs7d+7EX+np6ZBZv349/kLfF9YUnTaYE+36bOYnPvEJ8SLa2lvT++KO01viFK+gZZBWpKSY6aDUI4EVOsB7WltbW3QkJSVBhzNnzngnu8GWQL/WrFmzdetWpGd8fDzFdaCBRut0eP/99ymbDALbtm0rLCwsLy+nwQDoBr6ya9cuEkNJcLzFOwmF0oVkoWhOml6iaIGMU1pgnDvw2gwHw02Q4xKDwZgJIiMj0ZukwLdmPRMGEvbPMM4PA08WNCgoCAdk72k2F91oMfgPs4Ee5MGDByl2r7BkOKBpCJy+9957crQS2b/dEXiIdbGHxfB+nLNgXyk68JnTio1jFvDh995776pVq0ZHR2GPwb2QpCJKhBUgH0/H68g75FG5DroixyxCS27L1LYc7Bllcvfu3a5DeRo5gdeWaTHcRHt7e2Jiot1aMDwH82wVEBsbi05bZ2cnTJeJdsvR7wcPl5t+mYIYrGlaWpoIdSxD3G7o9k3pZ2OdIw6xHNeGFm+3a3MBsCsYY+oKw/jFufShmzlovYDTzwQrgsUln4nPf/7zcnSK2tpap4OIlqKuri4vL4+O0RC5EzlxghPE6asmLNSO4RFESD6GjyJg3UWVghhvoyg3turiYxBrK1TeOQyMhBZrwCqjZ4t+lCG0g9ewVIdmBzeSQXtw0MJRcoPFqTv9E6OPoTj2pu+DWQKOFxVUkgUmEyCIje3VVNKDMim+SFklbX+jFwSQC7GxsZ2dnTt37iSXQAWVVFNg+/btdJCQkKC4dSgtLaXRl56entTUVByjd07Lf9RR0gsCdXV1JSUlFG0FuYZEEG6qUzKVCR9DGh1CtWEfQ6UEtADzMaTwn8oq6UGZ7O7u9qEyqaBKZgnQFoUjIyONjY2GkOHqKKmaQH9/P23emJycTMPOCiopn0ZGRqLGFRcXV1VVNTc3Hz16tKOjw7A80nYlrRPo6+sTW3ECBw4ckOenHOU1B0zMHZi+ctebEMpPOU6bkpIi4nBFREQ899xzNL7U0NBwyy23yMmHZ7788ssiQgjFpsBvXFyc7KNh7vRkIMNfAwD7dM3yJ6Cmh4eHDw0NoSJ7sK98YAI9TjrwcqDAGaKiouL999+vqakZHR1dtmyZwTT6K8CBtmzZInZ/QDn3wNdyghP4dIvsfnBicEYKKkm7d6SmppJrKJIPFEEuNxDIy8sjToC74uPjg4KCFi5ciE4GhMkRF4R05cqVhl29QdNw75SBOFzDp7PDM7gZA5jcm5FZ165dMzgAO/IzZARkxEXKd/ICk2uL44244nTuDfmCh0ABGBjDhiKTgf0J1AEyDlUevSixYIzhAijt6G1ruoHxuWJM7n6o6bCRGRkZb7/9th/7kRhWG4pgz1POFDjCTziBMMBo8V37laB8JCcnx+nYtGnThz/8YRh4FB3HzhweJeLQQQA9jLNnz8IGwCSgWUGBQx6AE2h60smcADfOPNy3T2eHpUDKy86wyBfkIHKzvb09MzOTSID4F3mEv6h60BohmlTWpFE1yn1D7HHcBZNvWPExMDCwaNEi2kUJXZAf/ehHp0+fnnKUyMWm7wwvA40DmksUg8rKShz7nJ3zJlApRFvqevWasqDtmvAVfX19hYWFMBMUbNFuvUwGvgsZRH0qsTulx08zrkX0bDcgdeBO+yvSCyZf9AVRaO655x5ZDFVC9AKR3Pn5+UQRUMIOHz7stYLF8QkMoNlBiosC5oTsiI+P/6//+q/h4WGYagM/E0DBhiXAXZT7qEIlJSXECXCLIyNEeXBc8YFbQCgp3Me+ffvAEXnmyOcAmogcRP6C9rneDCaQQYSA9jTKysry3R42WgPUfZB79BlaW1sp0/2pzqLDI/pIaWlpTU1NM3zgxLqDiIgI9J9o92tNYY9K11fk/UYne0JdXV1CQgK6+BSSM06KwmGQDw0NpSvLly/fu3cvuqQbNmzARYpe6fRFV69eHRkZETcaxC5dugR6Aaohb2imYEraImD4a7InULhQOkWOVFdXgxOcOnWKZJymPA7I6i9cuJAuwqIfO3ZMCKDtc6fYo7QsWrSILqKk0Zy0O981ZZl0ccX7AgqqZKIAugEoLXfffTeqf0xMTEVFRU5OjmpK2ivQ399Prvs43rx5c21tra8XmO9973t79uyB+URNX7x4cWlpKTJdNSWnKzA2Nvatb33rmWee0XQLVVlZSUGUp/sKAybWHdCegeAEfrzugEZXYLNXrlyp6T6Gu3btkinwZD7/J06cAHUo0oFOKuyQPI0Nm0TjyeRwAKNFyzcMOoCurlu3Di+FfRL7bE75mRRt2sSEUlZAHLted4DsI05Ap7R7/ZIlS9CtR9aIICHyE3AAE47cyczMpNkEXFy7dq38CqcvNZw+9dRTyOuDBw9OJuBBmVQtLxRUyXQBkPLjx49T5Lu8vLwXXniB3IyUUtIuga6urvvvv5/81MB6HSPtqKDkdAVmzZpVXFyMxpki+iHT0TM8dOiQGFNUQclpCdAQqRjIoQiSHlR2zQHGuQNfH1SRTbUjyBLn5+fTfsqTteCOoL0m29ra9u7d29raCsNw+PBhMdlGm51renyh119/fbKH0H7naH3II0Hsm+IavLeeAWi7Ozs7V6xYgZadNkajePKaSw9/CDQ1NSUlJSH7wsPDHT0E5ZJAM0pyDDICMhr5jmYFLSZ+X3zxxSmDgjHUBNXEjRs39ulA8di+fTvMht162Qww7OzsbDqmmekpu5U+BIrBjJpbU1PT09ODDrCl4Q6tA+xXWVkZ8TY5fLIpmOAEvu5J4D485j0JCQmJiYm0jYrsloiCRc8kkoGi5ljOULtgvXbv3i0UcHMic2BggA2PAbDZSGFYdGQBDgQ5c1y5ILMEZN9//dd/IbOQF+Qh2N/fL/5F1ZozZw45jeIuCDhlY+SYdscdd8CQrFy58uTJk77YpjC06w5oonktKSkBTdyoI9CcDJAODTpEbHvRcfI/4LuQv48//vjIyAhtm+RDK1AohLNYTr9nzx7T3T/9JD6BgMc+XyDFFPVJQJAkygbaKF3TmxJkA2yGkDS80akCMEVkybTrqyTczEua0wkE0PzLlOUQMuivV1RUuDPGA8str0NB1lCjj8xdtmwZLR7R9NzHRVA6sdBAzl8DaEwCbKCurg6tiYtFp1SiAodt+yJoLonCvNByEiA8PPy+++6LiIhAgZmMH0RHR7///vu0tJW4qem6QSUXCswEg9dx/PjxV199VSbToMJ2RQX2GmjbpA0bNqB9KC8vRzqgS2C3UlMDPRYxrUPrrTzeZtoF/CS2sRgE/u1vfysvK3c68AVhcV0cZGZmPvnkk+Smoek7D4GLgUtC4JZbbjlx4sSqVatg1xctWoSMOXXqFNqLD667HxpSj3Y9N7wCrcbHP/5x1Leuri68RUQJnewzhRPif/7nfyqV1NYJoO1DI/j22287LYFTPuG2227T9NlQsVIDx9r17EauHTt2DBlKf4EEIOPIn0OTNo9x/Yrz589/8pOfFOMHKCp5eXkubrnjjju0614j7qeD7QIKqmSpAAoDGB5KSHNzMyr+wMDAkA7NYqAxoR2cNclzFsUV/VeUsREdM3zF/Pnz586dGxkZOTw8TO0SgfwHDUB5zsnJSU5OhlYuSqzjFV8UQGqjGS8uLq6vr29sbEQjD34vAgAroqS4gt4FVD1w4MD4+DjKRrEOpzGbPXiFARM+htQig/b6oo+hMANvvPGGUy8zOgWXBx8EBXZ0AEQS9/f379ixo6SkhK7k5+d//etf/wvd+xKlB3ctXryY/hL7TwfrMHiQXb58Wbs+Py1eEadvMUVbeSKD8cDCwkL0Uyf7TDE88M477yiV1NYJ0AHqqmsfQwHD6Wc/+1n8fuc73yGvQ8jjGARx06ZNkETL+K1vfQu8gQYG0LlHswhyJnLHHR/DF1988dChQ/QEFIAf/ehHpaWlLr4LLbLhOYokdYD7GDoVQBuyYsUKFAn0GlE88IvGkEatZh5uxClAMeVTp3Z6hriow8WTwQNozx5UARoAUyEvvCOApruuru6+++5Dja7XIc/NK6IkrqAQIoOIpCK/aKsnU17hlB9MzB3QiLevzyBMOXHgYsS+traWAnmK4HciyZAl1FIAqDw4pRelpaWtW7fO8Byn619BQmmMEf/i+bAoPjSJpRSER6cB4Pio0tnZ2bTo/K233kJTKCJJCB9D1CjkAioY8o6eM1uH4WlOgxgiyy5cuAAyp+mTC3gCZ6L/AUWFJpJcNK8oYyCvb7/9tjyw76L9nW5UU8ijEzJllH50Y1yMJeAhMHvy8ICAaMQcPzPQgLxGjsfHx+MYrQcFBLRbqQmghaGdHnFcVFQEzmr1G43rDhja5N5/Tq2RozmZLG4SihrVQAj493SdpaDm1SnDpVCmNE6ATJTXGmnXfQxpdh+5JmIbGyIYEgwD/oSgoCAIU6Br8A+OmR+wiNODmrjv60Pthvu9OiHv+rHgJYbVMfIzSckpx9sYSKiTJ0+ifaZwhxS63p1tha1Gbm5ufX29pndRoBXFxbEazAkYqsCUcM4gASLQt2PbRzsd0PGUDe5kwBPABpjVMRh+A/T3aG1qa2srrU09ffq042pkrwFdF1ooq12fqhbhBK0GcwKGKvCCV5dZEC4LdivCYDDMAToMtFA5Ozt7dHQ0Pj7+6NGjtqxKlcMVi3hEXnu7n6w7mOyigkqygNNTCgwg/6Wgkh4IaLqHmm+VSQVVYgEW8I4AbPDdd9+dkZExMDCwbNmy0tLSyTz8rdChra0NhIB8QkNDQ7/73e+uXbtWFrNCBwMm1h2IS7647kCGD/l4uxCQB9KVVdJEARnurDvwCQH5i5RV0vY3sgALKCWwYsWK06dPZ2Zmtre3o79OLkSG0NdW6CAPD1AkJS9Uds0BPHfAYDAYDMYEZs+e3dTUtHXr1sbGxr6+vqVLl77yyivWxZNFD3Djxo205BXkw96Iy37CCcQSSr/Zq94UhztfhI2VgcFgMAhBQUEUCQB996Ghofj4+La2NitaJ3nzguTkZLzU3l2H/IQTiPCxfsMJ4vQYR3ZrwTAB4eHhdqvAYDA8Aaw1BbMnr0NzN0cYGxtLTEwUEbEqKipU2IXL6GMoQvbO3HPB+wKaHsRDRAVWU0k3BeTteZRV0lwBQnd3N4WXVlNJD8rk5cuX5YsKKmn7G1mABZQVQN/9rbfeysrKOnz4MPppHR0dMN4UOXcmr2hvb9+2bRvFskxISKitrQ0NDbWx4RUw+hgODAz4tI/hyMiIi9jGtivpvsAbb7whLiqrpIkCAlevXvUzH0P0BtjHkAVYwHcFgoODDx06VFNTU1hYiG79ypUrS3V49oorV65QIATtejAiCnZiS2XXHGCcO/D1TUILCgooDjFtkCiCEAvQbmB0HBERERYWRqFw3ZnCIXnDQzR9woJw6dIlw+aKkyEuLs7wEE2fARGOEbQCXgukfREJAetIwWAwVAaMC8W9Hh0dLS8vR+/Fg0jDLS0teI7TzQsUwQQnoLbYXu+GmaNPhzh1vXmJ+NeiPU5MgWGrLr9How5NH7JDaUSxnIyxOZIqpzKofiDjRHbpOcQCUaVB/3EgnFFAv4aHh4neyfxMAALyzJRTEBOljS327t2r6dvuTfHNDAbDF4AOPZoU9OhgZaqqqi5fvjytgEKG1YbFxcViR191YOQEPgpwN1A2N/voPgSYExvja9oLGlvTzGBs4PWGh7igg6YTRF/n2QwGQwDVGXQf1r2mpga9F4pe4M74elJSUnt7uyatNpxyat8W+Mm6A3Ts0MOjWHjUUdMmmUqhOQX5ikGAjmn2YeHChXJ8PfQsMzMzadEIrDUYoqZPDoneZ3R09JIlSwavQ+6DyjB0cFE4JvuugoICCqHl90DS7dq1S96OSHTxkbw4QDoYOF94eLgYdoMwde4pd5zKaPrsjCyAhxvkBZC/YqdQeeTJA/DOCAyGPwEtAxr/efPmlZSUoAGJ0/ddc7FBkbx5QWxsLFo5lfsJ/hPbGDaD/NXl645PgBlw/FjH03Admp6FsgDMPPUjd+zYYfhLnOJGcWzKTlaqJbVFAvk6NCuBvKNNUZcvX97V1WXWYwcGBmhH2rvuugttBOip+MvRP1mFpHYtoKBKLMACqgkUFRWhdufm5qL6p6amov/21FNPGbpwuKW5uRnUYWRkZNasWfX19WlpafKjbP8KR0ysOxBDpj667sA7AuI4ODiYE8rnBMQxTeOZ9Qp5qcttt90m3EKVTQded8ACLDBzgbi4uNOnT4MNNDY2VldXnzx5sqGhQcwj9Pf3b9iwgYYHoqKijh49anAYt/0rnPIDP5k7YDDcga8vq2EwGEph9uzZItwhzD9YAvkKdHR00BCCdn2+ICQkxG5l3QJzAkYAQeVpPAaD4aMoKyuLiIjYsmULhTsMDw8XO79HRUWRA8GUg/aKgDmBh1BtUSnDTbjwK2QwGAzPkJaWtnjx4pSUlCEddDE/P59c0X0IEz6GoaGhIyMjV69e/cA3fQy9IwAySI4XYIKcUL4osG7duubmZsWVtFdAQZVYgAXUF4iKijp79mxZWVldXV1YWFhNTc3atWtlGRWUnHK4YsLHENYOnKC7u5td51wICCcRuq6mkizgQuCWW24RV5RV0kYBBVViARbwFYHg4OBKHSorKZ9qDuC5Aw9BC+Lt1oIxbVBkCM47BoPBcARzAg/hGPiW4UNgTsBgMBiOYE7gIXhVG4PBYDD8DMwJGAwGg8Fg/A+MsY0jIiI+YHd6l1cM1xVUkgVYYCYCCqrEAizAAhYJGDCx7oAOwsLCeN2BCwFxzOsOfF1A43UHaryRBViABWwRcMoPjHMH7DrHCAR0dHSUlpbarQWDwWCoBSMn4OCvbqK3t5fdDBkMBoPhT5jgBHFxcZ2dneg/2aeML4EHVHwUYrdrBoPBYBhg9DEUx1M6JgSmQGhoqOEvBZVkARcC8kiYskraK6CgSizAAixgkYABRh9DOnbtmOB4JXAEbr31VnHKCeXTAhr7GKrxRhZgARawRcApP+D4BNMDRcbV2PGCwWAwGH4H9jGcHgQnYDAYDAbDz8BrEacHwQk4oXwUvb29dqvAYDAYimKCE3AP2AU6OjpAApKTk8UV2kRnZGRk1qxZPLjiQ2Ayx2AwGJNhYt0BcYKwsLAP2J3e4Up8fHxQUNDrr78urs+ZM+fq1atRUVFf/vKXKyoqVFCSBVwIlJSUfPSjH3388ceRa+Iijru7u2NjYxVRUhEBBVViARZgAYsEDDCuO4iIiGB3escru3btKiws/NrXviZGnrdv344e56VLl5YsWSLuUvwrAlng8uXLdXV1GRkZwcHBdGVsbAx5NzQ0JCqJ7UqqIKCgSizAAixghYBTfsDrDtxCQUEBOIEc66ampkbTwxWkpKTYphbDbWzcuLGxsVGeIGtqagIhkOeDGAwGI8DBnMBdwHi0trYaLubk5LAzgU8gLi4uKChIELgrV65UVVVpOtuzUSsGg8FQCswJ3EVZWZlTTmCLMgwPAFrQ3t5Ox319ffiNjY3FRTt1YjAYDJXAsY3dFYiKipo/f/7FixfFX5s3bw4NDVVKSRZwcVpaWio4AaGiosL1LQp+hRcEFFSJBViABSwSMIBjG09DYO3atfX19XQcEhKyc+dO7cakU0FJFphMIDo6Wj5dvnz5ihUrVFPSdgEFVWIBFmABKwSc8gOeO5gGYFQEJ9i4cePs2bOn5FwMpRAVFUWzBkBiYqK9yjAYDIZqmOAEHMtlSsgdTXAC+xRheAjZITQiIsI+RRgMBkNFTHAC9p+fEmFhYeJ46dKl9inC8BBxcXFiQSl7FzIYDIYBxrkDnzZ1vb29NNrR0dEBiiO+RT4e1OH+M+lex7saGhp4qMB3ER4eHhoaarcWDAaDoRYm1h10d3fj4KabbvrAB9cdtLe3b9u27fz585q3kK1j+fLl8kUoMD4+7s7tERERQUFBk92Cf2GxysrKKOyuUklthcDIyMhXvvKVd955R5scH/vYx+bPn0/H0dHRSLQ33nhjYGAAaYWiGxkZSelJCAsLu/nmm4eGhvBkYfsvXbr0r//6r3SMv5C2ixYtkm+RWQKeLEdBngzQZGxsDJIROqBJcHCwmJW46667Zs2a5X46KCKgoEoswAIsYJGAARPrDtC04QAtms+tO+jt7U1KSnL9nRahp6fHsxthclz/C2zcuHFwcFCppLZIAB977NgxzW0IT0+A5gI8yIhTOqZ7lwtNHAFy0N/fL1+xPamnFFBQJRZgARawQsApP/CHvZKFzlFRUSkpKUuXLnXhG7FABx0bEmh4eJg2OcQD3dlRV0xVCKDX+P7778OQi6kK9CBBs6Y1YYFnNjQ0jI6Ooi/r5i3+BGSim64tlI+TJSz6/chQg9OAY5YZILwNnKoB7jIyMuKObkIer2NPHQaD4SswcgKfbr/Kysrk3Qem5FAGhIaGkgASgWyJ6ydAxiIeB9Ml760QOMjKygIf0pTk1G4KgMkRBSwoKACxa2lpYb8TBoPhK/Cr+AQ+TWhkCPd4mJbw8HC71fEe/MB8ioEokBtk4rQcWhkMBsNe+FVs4ylvUUHJaQkQJ1BcSbMEDNfVVNJ9gYiICHCC4OBgnyuTCqrEAizAAhYJGOA/sY01fZzAz5ynyC9BcSVNERCg62oqOS0BciNduHChb5VJBVViARZgASsEnPIDv5o78OngCk7B4ZN9FyiNnZ2dfjOfxWAwAgF+xQn8DAHlSeB/8MUlPAwGI8DxZ07gztI7htfQ0dFhtwr2wJ9GerhOMRgMn8OfOYFPt8X+6todOMPOfsmBKPsCJxMZDIYf4M+cQG6UP/C1dQeCE6is5LQE0tLSOjs7+/r6+vv7IyIi1FTSRIG4uLjy8nIcVFdXl5aWqqnkdAVoQemVK1dc36LgVyioEguwAAtYJGDAnzmBCO0H+xpnWSgeiwSERUETjGM1lZyWQGRkJJ2OjIyAE6ippLkCBGSf36w7IIAT+JaTv4IqsQALsIAVAk75gZET+LdjlBgOcR3/mMEwC729vXJsTQaDwVAZ/rDfgYA8SOCI5ubmjIwMcRoeHn7s2DH0yCn6rOHDy8rKwBuSk5M1nUlUV1eTAC7iL+ITuFFEQRbARbYBlkIQO3kLbE2PByDGVwiUZYL8QQBlQNPLieuiwmAwGIEJv9rvwDXIlpSWlsKQDA4Owsynp6d3d3fj+ujoqCGKcHl5OSTBCXAdNh7JAt4Ao1JTU6Pp096aHrz29ttvl60Lnpaamnry5Ek2OZ5BjFdNBqR8YWGhOEWWgaJRROQVK1acOnVKZgkFBQWgBWBpmp5Z2dnZlMXI3KysrH379tED8QTkslzyKcdJgMFgMAIHxtjGMHIf+JqPoUBXV1d0dLQLgdjYWOHCtnDhwqSkJNzy9ttv4/QPf/iDkKdtowmPP/44GMNbb70VFBRET6irqyMxXBTJRQAncHyvggmlpoCm23hx3ekTqOsP1rVy5cpf/OIXubm5W7duvfvuu5HvyDXkSFRUlJAn51PcNTIyAkIAilBVVYUryMG8vDzkPggcHoj87e3tRc6Kl17RYcpnTnmLgnmhoEoswAIsYJGAAcbYxjCQf+GzsY3vvPNO17fASIgrFy5cwO/cuXPHx8dxEBkZKeSDg4PFLREREfg9dOgQOqMQyNVBf5GYU185cXHmn6kFUmzjydJNXCFTHae7weL3ueeeg11vb28nGjdv3jz5CeKZRPs++9nP0r/IQWQ3aIT8CsdirzlkrgdlUnOZfQrmhYIqsQALsIAVAk75gXHuwKcDFbie+BgYGBgaGhJzydXV1QkJCQsWLHB0oZCjzYAKQBK9zLKysscee2zDhg3iLZ2dnd3d3ffdd58Y8XaxwXFLSwueACJCIxkNDQ1TjpMzHGEIBGTwGDCUXlBASmRcj4qKAhVA+iNDyQtkMr5MgwST5Q4UwL/so8pgMPwS/hDb2E2/SNqnThgVWIX9+/drzpiE/EDYho6ODpjz1tbWvLy8Rx99FKfC9qB7Crow5atBCNCdzcrKOnXq1Ic//OEp5f01CpNZSElJQRYgK5EpMPYw85MFDRQ5BRIWExNTWFiIrMTt+JXdR+Lj48VxSEjI6OioU0fRqqqqkpKS5ORk8kE5cuRIYmKia1WZOjAYDB+CP3AC94PIwgxAWDTTH1yfPHZ9F+wKjDrsNOxKdXU1yAQeQv3IhISEtrY2PIF0aGpqqq+vN9yOfwsKCmBpcDu9EUbF9SABcwLXQPq89dZbwcHBpaWlSNvJ7O7Q0JA8hDA8PLx3717kYGNjIzL09OnTYp0CckSwB9h7p+M9eCkIAd4IPoGXkrfplPDphTwMBiPQ4A+cwH3AEjvaD9q/zp17ac0Cevyw7jAMuBgaGqrpfUGaj+jv73fkBDA/ME75+fna9f1zp1ys6NMzOFYjKioKDGwyjwQXCAoKKtBBq08rKyvr6uo0nSnS2gTxTKdPBpnAEyjfCZTpDAaD4TcwrjsQxyr4Q05LYPny5a4Furu70bN0fObq1avR56utrc3JyaF/afkAeRfS4HBTUxOtO7jppps03btQPMfptLR8kTr9eAsuvvLKKzi+++67HRNcPjWMfKiW1BYJGC5O9gSxf7QsQKsG5IUn5DpKYiMjI83NzXl5ebNmzdL0UYF169Yhl/HX1atXwfYmy035dO/evWlpaXTl1KlTCQkJKBJTfqbTIuc6HWwXUFAlFmABFrBIwADjugPNmQO2Y59MQQFtKi9xtM4wJ47PhNVH1xMGA0YiLCxMzFKnp6dDoLi4OD4+fsmSJehf3n777Vu2bAkJCVm/fr14jmOfUn4LnkCdfmIk//f//l8cf+c730F3k6YPpvxMjdcdOFxxukYAHO7pp5+mHj/w0ksvadeDJV+7dq2kpGR4eLiyslLTJ5uOHj364IMP4q/Lly+L97ouUbS0AVfwip6eHiKLU5ZJw+oGFZLatYCCKrEAC7CAFQJO+UEAzR1UVFTMnTvX6V/kRXjw4EF0KMPDw2mWmv6CUTlz5gxOKVQO+qPV1dVkzvft24cev/ycyMhICBhG/lNSUtAxLS8vx1vQ0UR3U3MjOE9Awf1J99k6nP6F/E1KSqLghnhgX19fVlYWDe8jtQ8fPpyZmUnxCTR9vgBsj/5yfDton+NbkLOdnZ0oJw0NDZoe+Agkjx7iFH652SODwfBvBBAnMPTYZMAAwNLv2rXLqQBsDLXvBpJFEQtkSZgNp5ZAdF4hT11Vhgz3vUTJHjtFQkLCm2++KQS2bduWnp4u/gUz6+/vHxgYIP9QnFLeOXVRlB1R5VfTw/EvDsAkcnJy3FSbwWAwfAIBxAkYysL9URPXS/vwHOED6DgsFhoaGhYWZnAMdPpAMa1juFhaWkqkkIaRppyZYzAYDN+C0ccQPd0PfNPHkAV8V0CsvZQvqqakZwJT3qKCkra/kQVYgAXsEjDgz5ygr6+PDpw6W32gnnOE0yu262C6AHVYFVfSFAGCmz6GviJg+Cg1lbT9jSzAAixgi4BTfvBnTiDcrDo6OgyDq+rDjyP8BEgUPD/+TI5ZxGAwfAh/5gQ+HSTH/yyKmF8X+/X5N8T3woL6TW5SLCzk4JQhqhgMBkMR/JkTiIbYF7s1pHxPT4/dipiGQFupKNYd+BMn8JsPYTAYgYOJdQe09YsvcgL/gx/PhrhGoJEhBoPBUAoT6w5ACHBw7733fsDrDuwW+MMf/kDH/f39YiWIakqaLmC4qKaS0xWY8hYVlLT9jSzAAixgl4ABxtjG77777l/4aWxjFZR0U0Ds1zcyMqLxugNllPSgTGq87oAFWIAFlBRwyg+MMYt8eu5gcHDQPwafxdxBoE0i+E0OMhgMhi/Cr+IYpujo7e11wWxgdWbPnk0CFOve4AtGAfPlhzguzhzUIa6Lg+7u7qtXr9Kx/OQFOpzq09/fT4MBMqqrq8VDJvsQf4JIqGoddqpiHgKNzzEYDD+AkRP4dC+tT8eUYkNDQ4YDA1pbW+XTzs5Op2Lienl5+TS0nA58eo2o+xCfWVNT09LSAiZEV4ifTXYXMTO63amTvxBwE8HBwWKrZRfMEhQQf+HJrnVrbGx0/9UMBoOhAoyxjdGWhYeHaw4zDVa4NpglkJOTgw76L3/5y4sXLwYFBUVERATr+OMf//jOO+8YbgkLCwsNDR0bG0MHna7geGBggI7pdlkez6GuP8R+//vf4xWaF0EmSp2ktkgAOSKOiagJvmXgZ04xGWnzAO3t7e6/zh3dtKlSRrW8UFMlFmABFrBIwACjjyENg9vu+zAtAZj5tra2mb8Cth8MwPUTsrOzqf8H5uS4Rx9MuOsniJkCpDP1RMFCVqxYYZC/okPsxKNOUlskEBkZeeTIke3bt1Pnm6ZaxA6TSCunu026mJEBhoeHUTAMF+Xue1FRkSGzZNDUj9NXu78JMp5fUFDgWw59CqrEAizAAlYIOOUHfuVPMEPAPE8pk5KSQkYFBzAY7iSxjIiICLGmgEaend4yW4e7evsFEhISEhMTxSmSRexwKK7MvHqMjo4KTlBRUeHOE2RvkpnrwGAwGCqDOcH0IOaYA81m+weQa1FRUeR0MjAwIPgZg8FgMDTmBNOFoALsVe6jEDnoYuKAwWAwAhMTnID6T764L6I3ESALAQIBsmMjg8FgMDR53QH1n8AJaCM+L7g7+qKAGB5YsGAB/aWgkizAAjMRUFAlFmABFrBIwADjugMwg7/wzdjG3hGQ/+WE8l0BWnCruJK2CCioEguwAAtYIeCUH/hVbGMGY0rQvsw+HZuLwWAwLIKRE7AzAcO/sXTp0s7OTuYEDAaD4Qhed8AILFAUQuYEDAaD4QhjbOPu7m72MXR9xfCXgkqygAuBoKAgEc1aWSXtFVBQJRZgARawSMAAo4/h1atX2XXOhYD8LyeULwpER0d3dnYODw9r7GOoxhtZgAVYwBYBp/yA5w4YgQX2omUwGIzJwJyAEVhwZzdtBoPBCEwwJ/AQvECDwWAwGH4G5gSMAALvUsFgMBguMLHu4OrVq+JYc/A+cHRGCEyB/v5+ccALNHxOQHCCiIgIZZW0XUBBlViABVjAIgEDJtYdXL58WRzP0JvRjwXeffddOo6MjOSE8jkBsSnifffdp/G6AzXeyAIswAK2CDjlBxNzB2guh4aGHCUYMjjWjU9DbGvJ+chgMBiOmOAEPNXqDihaPoPBYDAY/ocJTjA6OmqjHgyGF8DBCRgMBsMFJnwMKeardn2OYUrHhMAUoPh38l8KKskCkwkYhnnUVNJ2AQVVYgEWYAGLBAyY8DEkQqCxj6EzgZaWlgULFkRFRV27dk38i7+6urrmzp0rJqcV/woW0G6Emkra7nakmkoswAIsYIWAU37A8QncQmpqanh4+JtvvmnwTYuPj4+Oju7o6LBHLQaDwWAwzIORE7APnVMkJye3tra2t7eL9Lly5UpDQ8PY2FhKSoqdmjEYDAaDYRKMnIDXaDlFWVkZOEFdXZ2I7NTS0tLR0REUFMScgMFgMBj+ASMnEEFdGDKWLl0aFRXV3t4urjQ2NuI3LS2NWRSDwWAw/AMT6w7EpQ/Ynd7Zlerq6vj4eMO/RUVFSinJAq4FXMsroqTtAgqqxAIswAIWCRgwse5AXOJ1B06vxMXFhYaGjoyMiH9jY2Ojo6OVUpIFXAtoN0JNJW13RVZNJRZgARawQsApP+B1B9NAQkJCfX29OAVLsE8XBoPBYDBMBnOCaQAkQOYEBQUF9unC8AQcwJvBYDBcwMgJuNF0Adpgl5Cfnz979uwp52YYSoGLN4PBYLjAnzlBf38/HRw/fvwD9jGc5Ep0dLSIAH3PPfdwQvmcQHBwMB3QmlI1lbRdQEGVWIAFWMAiAQP+zAkiIyPpYGRkJDU1VWwpSxgYGKAu8pUrV3p7e2keHQdu7iizQAe6aPKyPbTOc+bMoSt41MKFC0V7DbgTGRAqhYWFkSQUlldR0kXoKStMGNThjtoG/TXdkIgI0AcPHsTbNX31pkiurq4uIWAAxKAMKMWKFSvk62Bjr732muOCRghDbaj613/918gUSkD6S3wOJSleKj9zum4mASUAVkfH3d3dCQkJaippu9uRaiqxAAuwgBUCTvnBxNxBSEgIbY3YqsNRVKCzs9PFvzOXNwvl5eWGAxMxZSopgtjY2CllwPnk9RQgW6GhoQYZoj7ucDVI3n777XimptMXImEgfGSPcTxbx3Q+QtMcPDrBzy5fvkzPoeCS0PnjH/+44ckGhTlMJ4PBYLjABCfYuHFjTU2N+3dGRUWhfecdlhWHB4RsQIfjdQ84kPx2OeKTBzCX2HFsLgaDwXDEBCeo1uF0RoBG6eUrrkck0DlDp+3dd991MbkAGTG2jwaaRsjFv1Mu83NzCmDBggV4BTq44rvERIAMUkN++5QdYurvGvqdSChYU3rdlLoRkLCy6+JkEDMU6B93d3cbFJYBgZ6eHjffToACSH/ZTOLh9BUGzhceHo7UQ04RacDp0NCQ64fLAxX0WCh/4cKFOXPmTHmvRQgJCeGI1AwGg+EIYxxD9P6dyk3Lc8Gd8Wohk5yc7J6qzm83S96gxnSf700kJCS4IzY2Nkauo7Dcc+fOtVgpDyGU9ACgUxRFanh4GKeXLl364x//SM6DwcHBMPx/+tOfgoKChPzFixd///vfgwBFRkbSdTVdfmwXUFAlFmABFrBIwAAncQwZ/gHYRYM/o4KYuZJhOtyRVD81GAwGw15wzCIGg8FgMBj/A+YEDAaDwWAw/gfMCRgMBoPBYPwP/n/liwtYAB82+AAAAABJRU5ErkJggg==;" vertex="1" parent="1">
          <mxGeometry x="45" y="103" width="689" height="513" as="geometry" />
        </mxCell>
        <mxCell id="1a2z4wAiVwXOB5H00OA--2" value="&lt;font style=&quot;font-size: 18px;&quot;&gt;➁&lt;/font&gt;" style="text;html=1;align=center;verticalAlign=middle;whiteSpace=wrap;rounded=0;" vertex="1" parent="1">
          <mxGeometry x="115" y="271" width="25" height="25" as="geometry" />
        </mxCell>
        <mxCell id="1a2z4wAiVwXOB5H00OA--3" value="&lt;font style=&quot;font-size: 18px;&quot;&gt;➀&lt;/font&gt;" style="text;html=1;align=center;verticalAlign=middle;whiteSpace=wrap;rounded=0;" vertex="1" parent="1">
          <mxGeometry x="434" y="451" width="25" height="25" as="geometry" />
        </mxCell>
        <mxCell id="1a2z4wAiVwXOB5H00OA--4" value="&lt;font style=&quot;font-size: 18px;&quot;&gt;➂&lt;/font&gt;" style="text;html=1;align=center;verticalAlign=middle;whiteSpace=wrap;rounded=0;" vertex="1" parent="1">
          <mxGeometry x="542" y="194" width="25" height="25" as="geometry" />
        </mxCell>
        <mxCell id="1a2z4wAiVwXOB5H00OA--5" value="&lt;span style=&quot;font-size: 18px;&quot;&gt;➄&lt;/span&gt;" style="text;html=1;align=center;verticalAlign=middle;whiteSpace=wrap;rounded=0;" vertex="1" parent="1">
          <mxGeometry x="221" y="113" width="25" height="25" as="geometry" />
        </mxCell>
        <mxCell id="1a2z4wAiVwXOB5H00OA--6" value="&lt;span style=&quot;font-size: 18px;&quot;&gt;➅&lt;/span&gt;" style="text;html=1;align=center;verticalAlign=middle;whiteSpace=wrap;rounded=0;" vertex="1" parent="1">
          <mxGeometry x="359" y="119" width="25" height="25" as="geometry" />
        </mxCell>
      </root>
    </mxGraphModel>
  </diagram>
</mxfile>
